<svg width="504" height="981" viewBox="0 0 504 981" fill="none" xmlns="http://www.w3.org/2000/svg">
<g opacity="0.1">
<path opacity="0.7" d="M616.325 361.058C611.171 360.205 606.016 359.317 595.879 357.611C608.903 488.181 561.686 603.323 504.95 715.596C429.623 585.094 413.644 528.633 403.884 353.002C357.492 415.267 358.523 480.74 368.764 555.293C290.035 531.432 213.608 527.062 130.893 576.799C241.65 580.281 353.884 570.449 402.2 683.611C441.307 775.266 476.943 874.227 384.022 966.497C464.641 987.593 542.27 982.029 624.607 969.399C535.397 873.578 565.981 771.853 607.528 676.613C656.016 565.363 764.642 581.612 861.035 578.267C814.711 533.924 764.299 527.984 649.556 551.026C638.25 487.396 626.978 423.766 615.672 360.171L616.325 361.058Z" fill="#7D7D7D"/>
<path opacity="0.7" d="M658.01 197.853C580.862 210.449 536.222 260.356 501.48 329.379C464.263 251.515 413.197 197.443 314.606 185.529C414.16 237.416 439.898 314.632 442.235 409.121C443.679 468.108 459.967 526.993 472.339 585.332C476.187 603.424 489.074 619.639 500.38 641.759C543.473 588.643 553.507 531.67 560.586 474.321C564.16 445.51 562.648 416.119 563.885 387.001C567.15 310.331 593.405 245.097 658.01 197.853Z" fill="#7D7D7D"/>
<path opacity="0.7" d="M245.393 471.42C244.912 495.623 268.005 521.054 292.232 523C319.036 525.151 344.122 500.163 343.435 471.967C342.748 443.975 323.023 424.586 295.119 424.552C268.211 424.517 245.909 445.545 245.393 471.42Z" fill="#7D7D7D"/>
<path opacity="0.7" d="M502.338 251.447C530.689 251.311 549.967 232.263 550.517 203.861C551.101 175.085 526.978 151.701 498.627 153.545C473.197 155.217 450.998 179.659 452.132 204.715C453.369 231.102 475.328 251.618 502.338 251.447Z" fill="#7D7D7D"/>
<path d="M217.864 425.335C210.922 414.719 206.042 407.209 199.96 397.89C210.269 397.89 219.376 397.89 229.032 397.89C210.406 341.497 189.135 332.178 113.155 345.388C121.437 418.44 151.059 443.189 217.864 425.335Z" fill="#D9D9D9"/>
<path d="M236.873 645.514C243.505 637.185 250.138 628.821 256.976 620.219C193.093 598.474 156.838 628.548 156.391 702.419C235.842 709.383 264.193 693.509 271.615 635.307C264.021 639.028 257.835 642.066 251.65 645.104C246.736 646.231 242.199 659.066 236.873 645.514Z" fill="#D9D9D9"/>
<path d="M119.212 525.286C125.844 523.648 132.476 522.009 140.002 520.166C110.964 473.536 76.5998 466.914 13.8159 493.574C31.8573 546.485 65.7062 568.639 109.04 556.965C130.277 551.23 126.944 538.838 119.899 524.535L119.212 525.286Z" fill="#D9D9D9"/>
<path d="M505.468 119.613C538.664 100.531 548.321 79.0252 534.231 46.9372C527.29 31.098 514.884 17.5801 502.891 0C473.269 30.2788 468.904 63.0836 472.685 97.2539C474.643 114.936 479.729 135.247 506.224 118.999L505.468 119.613Z" fill="#D9D9D9"/>
<path d="M9.15527e-05 371.059C10.2063 404.512 25.3267 435.337 66.839 436.839C79.657 437.317 97.4234 426.462 104.399 415.436C108.283 409.291 97.6639 385.464 88.3168 381.3C62.8184 369.967 34.502 364.812 7.31974 357.234C4.87987 361.842 2.43997 366.451 9.15527e-05 371.059Z" fill="#D9D9D9"/>
<path d="M314.777 393.523C325.052 333.443 289.244 322.588 259.622 305.076C239.279 332.453 237.492 360.035 260.275 380.585C271.925 391.133 294.846 389.29 314.777 393.523Z" fill="#D9D9D9"/>
<path d="M35.5688 266.227C47.6994 314.052 69.2459 337.333 94.2976 325.351C105.81 319.855 116.875 301.388 117.562 288.279C118.868 263.223 90.6206 256.43 35.5688 266.227Z" fill="#D9D9D9"/>
<path d="M79.0746 665.928C108.937 671.56 138.353 672.175 147.735 636.673C149.934 628.31 130.106 606.224 117.735 603.732C92.9578 598.782 78.6279 624.043 79.0746 665.928Z" fill="#D9D9D9"/>
<path d="M219.1 272.885C195.595 267.662 172.09 262.439 145.595 256.568C137.588 292.786 150.131 313.063 174.495 324.089C188.757 330.541 208.241 331.497 208.138 305.348L207.554 305.895C211.197 294.664 214.839 283.433 218.482 272.202C218.448 272.236 219.1 272.885 219.1 272.885Z" fill="#D9D9D9"/>
<path d="M229.756 196.181C232.024 189.354 238.381 179.83 235.941 176.177C219.309 151.667 195.117 149.619 165.838 156.549C157.487 187.101 171.302 206.08 197.316 215.877C213.02 221.783 231.268 221.51 230.271 195.635L229.756 196.181Z" fill="#D9D9D9"/>
<path d="M231.615 501.461C204.948 464.048 181.168 454.114 147.25 466.54C146.666 495.556 158.762 517.642 185.498 522.626C198.316 524.981 214.398 509.927 231.615 501.461Z" fill="#D9D9D9"/>
<path d="M360.756 252.061C344.364 213.453 318.385 211.78 287.388 222.738C296.529 280.735 314.948 288.552 360.756 252.061Z" fill="#D9D9D9"/>
<path d="M403.093 109.783C381.959 135.214 374.811 159.997 400.619 181.844C407.045 187.272 433.953 182.629 436.461 176.553C449.589 144.67 426.53 127.704 403.093 109.783Z" fill="#D9D9D9"/>
<path d="M251.956 96.3673C241.028 167.712 256.939 180.035 313.64 149.381C291.097 129.991 271.544 113.162 251.956 96.3673Z" fill="#D9D9D9"/>
<path d="M393.195 16.5898C396.632 36.5253 396.048 58.6796 405.395 75.3722C409.484 82.6773 433.849 78.7858 449.003 79.9806C458.557 40.1096 430.825 27.923 410.275 10.9914C404.57 12.8348 398.866 14.7123 393.195 16.5898Z" fill="#D9D9D9"/>
<path d="M351.209 291.42C330.178 316.681 319.181 339.177 342.927 361.229C348.7 366.588 375.333 362.151 379.285 355.016C395.952 325.01 371.828 310.673 351.209 291.42Z" fill="#D9D9D9"/>
<path d="M326.016 38.4369C331.583 56.8704 335.02 76.4304 343.989 93.0547C346.6 97.8679 366.36 97.151 375.673 93.123C379.865 91.3138 382.03 71.9586 377.632 66.0871C367.528 52.5692 352.82 42.4649 340.003 30.961C335.363 33.453 330.69 35.9449 326.016 38.4369Z" fill="#D9D9D9"/>
<path d="M313.646 114.116C319.798 132.14 323.303 151.973 333.715 167.095C337.049 171.943 358.767 164.262 372.1 162.316C372.891 158.015 373.681 153.68 374.437 149.379C359.076 134.871 343.681 120.397 328.32 105.889C323.406 108.654 318.526 111.385 313.646 114.116Z" fill="#D9D9D9"/>
<path d="M218.45 272.236C224.188 276.161 229.549 282.34 235.804 283.467C246.182 285.31 257.144 283.91 267.866 283.91C265.666 273.328 266.697 259.981 260.477 252.881C253.192 244.585 239.618 241.752 223.879 234.174C221.886 250.32 220.477 261.619 219.103 272.918L218.45 272.236Z" fill="#D9D9D9"/>
<path d="M169.375 207.956C141.574 196.009 123.636 188.328 101.367 178.77C111.264 233.012 117.897 236.426 169.375 207.956Z" fill="#D9D9D9"/>
<path d="M236.873 645.514C228.523 649.917 220.138 654.287 211.787 658.69C213.574 661.763 215.396 664.835 217.183 667.907C228.66 660.295 240.138 652.682 251.616 645.07C246.702 645.241 241.787 645.377 236.873 645.514Z" fill="#D9D9D9"/>
<path d="M119.21 525.288C115.19 521.976 111.169 518.665 107.114 515.354C106.049 517.573 104.983 519.758 103.953 521.976C109.279 522.796 114.571 523.649 119.898 524.468L119.21 525.288Z" fill="#D9D9D9"/>
<path d="M505.468 119.614C504.815 110.875 504.196 102.102 503.543 93.363C501.413 94.0116 499.248 94.6261 497.117 95.2746C500.141 103.194 503.165 111.114 506.224 118.999L505.468 119.614Z" fill="#D9D9D9"/>
<path d="M207.528 305.929C205.878 303.949 204.229 301.969 202.579 299.989C202.889 301.082 202.82 302.618 203.542 303.198C204.813 304.222 206.566 304.7 208.112 305.417C208.112 305.383 207.528 305.929 207.528 305.929Z" fill="#D9D9D9"/>
<path d="M229.753 196.181C228.206 194.713 226.66 193.245 226.969 193.552C226.625 193.348 228.447 194.508 230.268 195.669L229.753 196.181Z" fill="#D9D9D9"/>
</g>
</svg>
