<svg width="351" height="454" viewBox="0 0 351 454" fill="none" xmlns="http://www.w3.org/2000/svg">
<mask id="mask0_298_1538" style="mask-type:alpha" maskUnits="userSpaceOnUse" x="0" y="0" width="351" height="454">
<rect width="351" height="454" fill="#D9D9D9"/>
</mask>
<g mask="url(#mask0_298_1538)">
<path d="M351 0H0V454H351V0Z" fill="url(#paint0_linear_298_1538)"/>
<path d="M282.216 130.718L271.624 168.731L263.465 197.99L255.39 226.985L240.792 215.617L243.454 204.686L255.141 156.76L237.839 144.193L259.826 137.518L282.216 130.718Z" fill="#FAA219"/>
<path d="M169.05 344.739L167.574 345.391" stroke="#995B00" stroke-width="0.5" stroke-miterlimit="10"/>
<path d="M116.903 180.93L74.5435 193.795L71.5629 216.316L54.1436 199.992L33.307 180.473L77.8985 168.508L96.7387 163.448L131.016 154.25L127.245 177.783L116.903 180.93Z" fill="white"/>
<path d="M186.968 159.65L172.523 228.433L171.927 228.627L116.127 247.301L107.67 250.13L114.636 256.652L154.646 294.132L127.55 304.481L105.639 312.854L56.2718 331.722L65.1997 264.353L67.5912 246.31L71.57 216.31L74.5436 193.796L116.903 180.931L127.252 177.784L174.02 163.581L186.968 159.65Z" fill="#FAA219"/>
<path d="M214.182 324.798L209.205 345.239L201.629 376.341L169.05 344.74L151.645 327.854L127.55 304.481L154.646 294.132L158.057 297.327L195.973 332.845L214.182 324.798Z" fill="#FFE4A9"/>
<path d="M320.589 277.807L306.109 284.198L286.111 293.036L259.681 304.709L253.193 307.579H253.186L235.642 315.328L230.075 317.782L226.367 319.425L214.181 324.804L195.972 332.845L158.055 297.327L154.645 294.131L150.548 290.291L107.669 250.129L171.926 228.627L172.39 229.036L210.965 262.474V262.481L219.075 269.51L226.166 275.651L240.792 215.616L255.39 226.984L280.053 246.213L320.589 277.807Z" fill="white"/>
<path d="M255.14 156.76L243.453 204.685L240.792 215.617L226.166 275.652L219.075 269.51L210.972 262.482L210.965 262.475L186.96 159.65L174.019 163.581L127.244 177.784L131.015 154.25L134.446 132.748L143.582 75.7285L196.512 114.179L219.13 130.607L237.839 144.193L255.14 156.76Z" fill="#FFE4A9"/>
<path d="M172.522 228.434L107.669 250.13L150.548 290.292L210.979 262.517L210.965 262.475L172.397 229.037L172.522 228.434Z" fill="#F2F2F2"/>
<path d="M172.523 228.433L172.398 229.036L210.966 262.475L186.968 159.65L172.523 228.433Z" fill="#F7CE8D"/>
<path d="M320.589 277.808L306.109 284.199L226.166 275.652L240.792 215.617L261.067 231.421L280.053 246.214L320.589 277.808Z" fill="#F2F2F2"/>
<path d="M226.168 275.651L261.076 231.42L240.794 215.616L226.168 275.651Z" fill="#E6E6E6"/>
</g>
<defs>
<linearGradient id="paint0_linear_298_1538" x1="-111.099" y1="-14.9005" x2="656.986" y2="482.526" gradientUnits="userSpaceOnUse">
<stop stop-color="#FDD998"/>
<stop offset="0.15" stop-color="#FCD692"/>
<stop offset="0.34" stop-color="#FCCF82"/>
<stop offset="0.55" stop-color="#FBC367"/>
<stop offset="0.78" stop-color="#FAB342"/>
<stop offset="1" stop-color="#FAA219"/>
</linearGradient>
</defs>
</svg>
