<svg width="351" height="455" viewBox="0 0 351 455" fill="none" xmlns="http://www.w3.org/2000/svg">
<mask id="mask0_298_2176" style="mask-type:alpha" maskUnits="userSpaceOnUse" x="0" y="1" width="351" height="454">
<rect y="1" width="351" height="454" fill="#D9D9D9"/>
</mask>
<g mask="url(#mask0_298_2176)">
<path d="M351 0.69043H0V454.296H351V0.69043Z" fill="url(#paint0_linear_298_2176)"/>
<path d="M158.916 337.113C160.32 338.84 161.158 340.838 161.45 342.891C165.199 340.99 169.55 340.85 173.348 342.352C174.557 337.35 177.365 332.692 181.679 329.198C185.963 325.727 191.068 323.947 196.19 323.765C195.212 313.039 199.435 302.034 208.453 294.736C209.68 293.743 210.962 292.853 212.281 292.059C212.257 292.035 212.238 292.011 212.214 291.981C203.251 280.988 200.547 266.974 203.628 254.188C185.951 253.704 168.59 245.824 156.565 231.077C156.461 230.95 156.364 230.822 156.261 230.695C156.115 230.732 155.969 230.768 155.823 230.804C147.711 232.936 139.909 236.782 132.975 242.402C106.846 263.564 102.872 301.829 124.103 327.871C128.314 333.037 133.2 337.325 138.529 340.729C139.222 338.706 140.474 336.841 142.266 335.393C147.34 331.281 154.802 332.05 158.928 337.113H158.916Z" fill="white"/>
<path d="M254.105 152.095C242.207 137.499 225.071 129.632 207.589 129.002C219.773 159.036 211.569 194.684 185.027 216.173C176.38 223.174 166.651 227.971 156.533 230.629C174.502 226.136 193.923 229.994 208.859 241.598C211.387 237.491 214.632 233.724 218.6 230.514C230.577 220.818 246.127 218.468 259.787 222.877C272.414 201.044 271.004 172.814 254.112 152.089L254.105 152.095Z" fill="#FCA532"/>
<path d="M156.564 231.072C168.59 245.819 185.95 253.698 203.627 254.183C204.691 249.78 206.441 245.528 208.859 241.592C193.923 229.987 174.502 226.129 156.534 230.623C156.442 230.648 156.351 230.666 156.26 230.69C156.363 230.817 156.461 230.944 156.564 231.072Z" fill="#E6E6E6"/>
<path d="M219.761 252.554C227.77 262.94 231.896 275.132 232.333 287.36C241.144 288.075 249.664 292.224 255.68 299.606C257.32 301.617 258.676 303.761 259.775 305.99C264.77 304.373 269.565 301.841 273.885 298.341C292.68 283.121 295.536 255.6 280.266 236.873C274.724 230.078 267.559 225.384 259.781 222.877C256.05 229.327 251.098 235.22 244.961 240.192C237.347 246.358 228.718 250.458 219.767 252.554H219.761Z" fill="#FCB054"/>
<path d="M212.213 291.987C212.213 291.987 212.256 292.036 212.28 292.066C218.454 288.341 225.478 286.815 232.333 287.366C231.895 275.138 227.769 262.94 219.76 252.56C214.449 253.807 209.023 254.346 203.627 254.195C200.546 266.98 203.256 280.995 212.213 291.987Z" fill="#E6E6E6"/>
<path d="M218.595 230.514C214.627 233.724 211.382 237.485 208.854 241.597C212.427 244.371 215.745 247.593 218.722 251.245C219.075 251.675 219.421 252.111 219.755 252.553C228.706 250.458 237.335 246.357 244.949 240.192C251.092 235.22 256.045 229.327 259.77 222.876C246.11 218.467 230.56 220.817 218.583 230.514H218.595Z" fill="#EF9014"/>
<path d="M219.761 252.554C219.42 252.118 219.08 251.676 218.728 251.246C215.75 247.594 212.432 244.372 208.859 241.598C206.441 245.534 204.691 249.786 203.627 254.189C209.023 254.34 214.45 253.795 219.761 252.554Z" fill="#FDD998"/>
<path d="M230.334 305.147C227.733 314.947 222.665 324.171 215.227 331.814C215.501 332.117 215.762 332.426 216.023 332.741C220.836 338.646 222.416 346.126 220.976 353.036C231.008 355.695 242.129 353.702 250.8 346.683C263.172 336.659 266.514 319.677 259.781 305.995C250.125 309.114 239.698 308.769 230.34 305.147H230.334Z" fill="#FCA532"/>
<path d="M208.452 294.737C199.434 302.041 195.211 313.039 196.19 323.765C203.196 323.517 210.233 326.267 215.228 331.808C222.665 324.165 227.739 314.941 230.334 305.142C223.504 302.495 217.245 298.116 212.28 292.06C210.962 292.853 209.686 293.737 208.452 294.737Z" fill="#E6E6E6"/>
<path d="M232.333 287.366C232.546 293.356 231.871 299.352 230.334 305.148C239.692 308.77 250.119 309.115 259.775 305.996C258.675 303.767 257.32 301.617 255.679 299.612C249.664 292.23 241.144 288.081 232.333 287.366Z" fill="#EF9014"/>
<path d="M230.335 305.148C231.872 299.352 232.547 293.356 232.334 287.366C225.479 286.809 218.449 288.341 212.281 292.066C217.246 298.128 223.505 302.507 230.335 305.148Z" fill="#FDD998"/>
<path d="M203.24 341.39C196.306 345.635 188.759 348.343 181.06 349.566C183.424 354.52 182.743 360.443 179.292 364.744C187.975 373.968 202.462 375.07 212.47 366.966C217.009 363.29 219.871 358.33 220.977 353.036C214.36 351.286 208.217 347.513 203.574 341.808C203.459 341.668 203.355 341.523 203.246 341.384L203.24 341.39Z" fill="#FAA219"/>
<path d="M181.679 329.198C177.365 332.693 174.564 337.356 173.348 342.353C175.572 343.231 177.602 344.673 179.218 346.653C179.966 347.568 180.574 348.543 181.06 349.56C188.759 348.337 196.306 345.623 203.239 341.384C199.083 336.121 196.756 329.992 196.19 323.766C191.068 323.947 185.963 325.728 181.679 329.198Z" fill="#E6E6E6"/>
<path d="M216.018 332.741C215.757 332.426 215.496 332.117 215.222 331.814C213.551 333.534 211.759 335.176 209.851 336.72C207.724 338.446 205.512 339.997 203.239 341.39C203.349 341.529 203.452 341.674 203.568 341.814C208.216 347.513 214.36 351.286 220.971 353.042C222.411 346.132 220.837 338.652 216.018 332.747V332.741Z" fill="#DD7D0A"/>
<path d="M196.191 323.765C196.756 329.991 199.083 336.121 203.239 341.384C205.512 339.991 207.724 338.44 209.851 336.714C211.759 335.17 213.551 333.528 215.222 331.808C210.234 326.267 203.197 323.517 196.184 323.765H196.191Z" fill="#FDD998"/>
<path d="M172.758 350.305C168.663 350.389 164.573 350.068 160.544 349.348C159.809 350.995 158.691 352.503 157.19 353.72C156.066 354.629 154.832 355.301 153.538 355.737C153.538 358.935 154.595 362.151 156.771 364.828C161.808 371.006 170.911 371.944 177.109 366.924C177.93 366.263 178.653 365.524 179.285 364.737C178.884 364.313 178.495 363.877 178.124 363.423C174.952 359.529 173.184 354.95 172.758 350.305Z" fill="#EF9014"/>
<path d="M173.348 342.353C169.55 340.845 165.199 340.984 161.45 342.892C161.76 345.079 161.45 347.319 160.551 349.348C164.574 350.075 168.669 350.396 172.765 350.305C172.522 347.64 172.722 344.951 173.354 342.353H173.348Z" fill="#E6E6E6"/>
<path d="M181.059 349.565C178.306 350.001 175.535 350.25 172.758 350.31C173.184 354.956 174.946 359.534 178.124 363.429C178.494 363.889 178.889 364.319 179.284 364.743C182.742 360.443 183.417 354.52 181.053 349.565H181.059Z" fill="#FCB054"/>
<path d="M173.348 342.353C172.716 344.951 172.516 347.64 172.759 350.305C175.53 350.244 178.307 350.002 181.059 349.56C180.573 348.542 179.966 347.561 179.218 346.653C177.602 344.672 175.572 343.231 173.348 342.353Z" fill="#FDD998"/>
<path d="M155.641 348.251C149.643 346.653 143.859 344.139 138.523 340.735C137.247 344.454 137.861 348.73 140.535 352.006C143.749 355.949 148.987 357.288 153.545 355.743C153.545 353.133 154.256 350.535 155.647 348.258L155.641 348.251Z" fill="#DD7D0A"/>
<path d="M158.88 344.558C159.695 343.898 160.557 343.346 161.451 342.892C161.159 340.839 160.32 338.84 158.917 337.114C154.791 332.057 147.335 331.288 142.255 335.394C140.468 336.842 139.216 338.707 138.518 340.73C143.853 344.14 149.638 346.653 155.635 348.246C156.474 346.877 157.549 345.618 158.874 344.552L158.88 344.558Z" fill="#E6E6E6"/>
<path d="M160.55 349.347C158.904 349.05 157.263 348.687 155.641 348.251C154.255 350.528 153.538 353.126 153.538 355.737C154.832 355.301 156.072 354.628 157.19 353.72C158.691 352.503 159.815 350.995 160.544 349.347H160.55Z" fill="#FAA219"/>
<path d="M161.45 342.892C160.557 343.346 159.694 343.897 158.88 344.557C157.561 345.629 156.48 346.883 155.641 348.252C157.264 348.682 158.898 349.051 160.551 349.348C161.45 347.319 161.76 345.078 161.45 342.892Z" fill="#FDD998"/>
<path d="M165.71 142.974C177.997 133.023 192.915 128.462 207.59 128.995C204.819 122.164 200.997 115.623 196.093 109.609C169.623 77.14 121.758 72.1979 89.175 98.5799C56.5984 124.962 51.6459 172.669 78.1095 205.143C97.3845 228.794 128.017 237.83 155.823 230.805C155.969 230.768 156.115 230.732 156.261 230.696C134.719 203.859 138.9 164.68 165.71 142.974Z" fill="#AF2B25"/>
<path d="M156.261 230.696C156.352 230.672 156.443 230.647 156.534 230.629C166.652 227.97 176.38 223.174 185.028 216.172C211.57 194.678 219.774 159.03 207.59 129.002C192.921 128.469 178.003 133.029 165.71 142.98C138.9 164.686 134.719 203.866 156.261 230.702V230.696Z" fill="#DD7D0A"/>
</g>
<defs>
<linearGradient id="paint0_linear_298_2176" x1="-111.101" y1="-14.1992" x2="656.591" y2="483.407" gradientUnits="userSpaceOnUse">
<stop stop-color="#FDD998"/>
<stop offset="0.15" stop-color="#FCD692"/>
<stop offset="0.34" stop-color="#FCCF82"/>
<stop offset="0.55" stop-color="#FBC367"/>
<stop offset="0.78" stop-color="#FAB342"/>
<stop offset="1" stop-color="#FAA219"/>
</linearGradient>
</defs>
</svg>
