<svg width="1414" height="1443" viewBox="0 0 1414 1443" fill="none" xmlns="http://www.w3.org/2000/svg">
<mask id="mask0_318_2293" style="mask-type:alpha" maskUnits="userSpaceOnUse" x="0" y="0" width="1414" height="1443">
<rect width="1443" height="1414" transform="matrix(1.19249e-08 -1 -1 -1.19249e-08 1414 1443)" fill="#DC4A2D"/>
</mask>
<g mask="url(#mask0_318_2293)">
<g opacity="0.2">
<path d="M822.29 2.12158L827.758 2.13034C826.736 -79.6492 837.957 -161.417 861.453 -240.172C699.594 -228.523 532.896 -284.69 407.523 -408.617L260.752 -260.401L525.372 1.6378L822.29 2.12158Z" stroke="#7D7D7D" stroke-opacity="0.6" stroke-width="2" stroke-miterlimit="10"/>
<path d="M675.569 150.338L571.306 255.628C658.626 342.097 660.351 481.985 575.269 568.348L831.692 822.27L825.726 299.03L675.569 150.338Z" stroke="#7D7D7D" stroke-opacity="0.6" stroke-width="2" stroke-miterlimit="10"/>
<path d="M827.778 2.13624L525.38 1.65182L675.537 150.345L825.695 299.038L827.778 2.13624Z" stroke="#7D7D7D" stroke-opacity="0.6" stroke-width="2" stroke-miterlimit="10"/>
<path d="M260.765 -260.418L2.11554 0.778443L525.381 1.6167L260.765 -260.418Z" stroke="#7D7D7D" stroke-opacity="0.6" stroke-width="2" stroke-miterlimit="10"/>
<path d="M675.545 150.314L525.388 1.62154L2.11479 0.783269L258.538 254.705C344.063 168.781 483.961 169.135 571.281 255.604" stroke="#7D7D7D" stroke-opacity="0.6" stroke-width="2" stroke-miterlimit="10"/>
<path d="M258.554 254.696C258.417 254.834 258.281 254.955 258.144 255.093L416.515 411.919L416.916 411.514L258.554 254.696Z" stroke="#7D7D7D" stroke-opacity="0.6" stroke-width="2" stroke-miterlimit="10"/>
<path d="M575.277 568.333L416.915 411.514L416.514 411.919L574.884 568.746C575.02 568.608 575.141 568.47 575.277 568.333Z" stroke="#7D7D7D" stroke-opacity="0.6" stroke-width="2" stroke-miterlimit="10"/>
<path d="M571.291 255.606C483.972 169.139 344.076 168.785 258.552 254.708L416.903 411.514L571.291 255.606Z" stroke="#7D7D7D" stroke-opacity="0.6" stroke-width="2" stroke-miterlimit="10"/>
<path d="M571.302 255.618L416.915 411.526L575.266 568.333C660.346 481.971 658.621 342.085 571.302 255.618Z" stroke="#7D7D7D" stroke-opacity="0.6" stroke-width="2" stroke-miterlimit="10"/>
<path d="M1377.47 -258.152C1372.54 -263.035 1367.79 -268.023 1363.19 -273.093L1226.89 -408.066L1226.49 -407.661C1125.39 -305.572 995.071 -249.752 861.455 -240.135C837.959 -161.381 826.739 -79.615 827.761 2.16269L1272.7 2.87548C1271.63 -91.6056 1306.47 -186.013 1377.47 -258.152Z" stroke="#7D7D7D" stroke-opacity="0.6" stroke-width="2" stroke-miterlimit="10"/>
<path d="M1272.73 2.87378L827.767 2.16094C830.362 210.505 912.388 419.001 1073.26 578.302L1383.85 264.655C1310.94 192.236 1273.82 97.5342 1272.73 2.87378Z" stroke="#7D7D7D" stroke-opacity="0.6" stroke-width="2" stroke-miterlimit="10"/>
<path d="M1392.53 -243.997L1642.47 3.51077L1886.78 -243.205C1747.78 -117.538 1534.4 -117.88 1392.53 -243.997Z" stroke="#7D7D7D" stroke-opacity="0.6" stroke-width="2" stroke-miterlimit="10"/>
<path d="M1272.72 2.90217C1273.8 97.5531 1310.93 192.262 1383.84 264.688L1642.49 3.49454L1272.72 2.90217Z" stroke="#7D7D7D" stroke-opacity="0.6" stroke-width="2" stroke-miterlimit="10"/>
<path d="M1392.54 -244.016C1387.43 -248.567 1382.4 -253.256 1377.48 -258.131C1306.48 -185.99 1271.64 -91.5809 1272.71 2.90213L1642.49 3.49454L1392.54 -244.016Z" stroke="#7D7D7D" stroke-opacity="0.6" stroke-width="2" stroke-miterlimit="10"/>
<path d="M1886.78 -243.205L1901.52 -258.091L1762.44 -395.82C1762.3 -395.682 1762.18 -395.544 1762.04 -395.407C1694.27 -326.969 1583.13 -327.147 1513.8 -395.804L1378.26 -258.929C1378.12 -258.792 1378 -258.654 1377.86 -258.516L1392.53 -243.988C1534.4 -117.88 1747.78 -117.538 1886.78 -243.205Z" stroke="#7D7D7D" stroke-opacity="0.6" stroke-width="2" stroke-miterlimit="10"/>
<path d="M959.627 693.099L831.711 822.274L907.513 822.396C906.97 775.566 924.308 728.766 959.627 693.099Z" stroke="#7D7D7D" stroke-opacity="0.6" stroke-width="2" stroke-miterlimit="10"/>
<path d="M831.711 822.274L962.588 951.875C926.451 916.091 908.044 869.229 907.518 822.396L831.711 822.274Z" stroke="#7D7D7D" stroke-opacity="0.6" stroke-width="2" stroke-miterlimit="10"/>
<path d="M1576.09 1315.3C1476.66 1298.8 1380.88 1252.2 1303.45 1175.53C1246.72 1119.35 1206.03 1053.15 1181.46 982.727C1112.25 1021.48 1022.47 1011.18 962.593 951.89L1534.93 1518.64C1534.93 1518.64 1638.79 1405.12 1576.09 1315.3Z" stroke="#7D7D7D" stroke-opacity="0.6" stroke-width="2" stroke-miterlimit="10"/>
<path d="M1177.77 662.985C1200.74 592.645 1239.91 526.583 1295.36 470.588C1391.58 373.419 1518.6 324.953 1646.17 325.158L1642.51 3.51101L959.622 693.119C1018.14 634.022 1107.68 624.01 1177.77 662.985Z" stroke="#7D7D7D" stroke-opacity="0.6" stroke-width="2" stroke-miterlimit="10"/>
<path d="M1273.27 816.229C1273.67 721.347 1309.51 626.977 1381.1 554.686C1452.68 482.396 1550.66 444.079 1647.54 444.226L1646.18 325.161C1518.61 324.957 1391.59 373.423 1295.37 470.593C1239.92 526.589 1200.74 592.652 1177.78 662.992C1192.3 671.071 1206 681.248 1218.41 693.541C1252.8 727.601 1271.11 771.685 1273.27 816.229Z" stroke="#7D7D7D" stroke-opacity="0.6" stroke-width="2" stroke-miterlimit="10"/>
<path d="M1521.55 1176.62C1472.73 1158.12 1426.83 1129.28 1387.25 1090.09C1314.32 1017.87 1276.32 923.874 1273.47 829.387C1272.44 874.067 1255.12 918.259 1221.39 952.317C1209.27 964.563 1195.8 974.698 1181.45 982.739C1206.02 1053.16 1246.71 1119.36 1303.44 1175.53C1380.87 1252.21 1476.65 1298.8 1576.08 1315.31C1571.79 1309.16 1566.73 1303.11 1560.79 1297.22C1527.62 1264.38 1514.5 1219.05 1521.55 1176.62Z" stroke="#7D7D7D" stroke-opacity="0.6" stroke-width="2" stroke-miterlimit="10"/>
<path d="M1153.39 822.804L1273.3 822.997C1273.26 820.733 1273.27 818.478 1273.28 816.215C1271.13 771.669 1252.82 727.583 1218.42 693.523C1206.02 681.238 1192.32 671.059 1177.79 662.973C1107.7 623.996 1018.15 634.009 959.629 693.108C924.308 728.777 906.97 775.579 907.512 822.41L1153.39 822.804Z" stroke="#7D7D7D" stroke-opacity="0.6" stroke-width="2" stroke-miterlimit="10"/>
<path d="M1181.44 982.72C1195.78 974.688 1209.24 964.553 1221.38 952.299C1255.1 918.243 1272.42 874.044 1273.46 829.373C1273.39 827.256 1273.33 825.13 1273.31 823.005L1153.4 822.813L907.511 822.419C908.045 869.242 926.443 916.11 962.578 951.893C1022.46 1011.17 1112.24 1021.47 1181.44 982.72Z" stroke="#7D7D7D" stroke-opacity="0.6" stroke-width="2" stroke-miterlimit="10"/>
<path d="M1273.3 823.012C1273.32 825.136 1273.38 827.261 1273.44 829.378C1273.49 827.262 1273.52 825.137 1273.49 823.012L1273.3 823.012Z" stroke="#7D7D7D" stroke-opacity="0.6" stroke-width="2" stroke-miterlimit="10"/>
<path d="M1273.29 816.23C1273.28 818.484 1273.27 820.747 1273.3 823.01L1273.49 823.01C1273.48 820.747 1273.39 818.485 1273.29 816.23Z" stroke="#7D7D7D" stroke-opacity="0.6" stroke-width="2" stroke-miterlimit="10"/>
<path d="M1521.54 1176.63C1525.95 1150.07 1538.28 1124.65 1558.57 1104.16C1573.17 1089.42 1590.36 1078.77 1608.73 1072.21C1623.52 1066.93 1639.07 1064.3 1654.66 1064.32L1653.47 960.141C1618.8 959.883 1584.04 946.507 1557.28 920.011C1537.2 900.12 1524.46 875.65 1519.11 850.015C1517.27 841.235 1516.3 832.326 1516.2 823.411L1273.52 823.022C1273.54 825.147 1273.52 827.273 1273.47 829.39C1276.31 923.884 1314.31 1017.88 1387.23 1090.09C1426.82 1129.29 1472.72 1158.13 1521.54 1176.63Z" stroke="#7D7D7D" stroke-opacity="0.6" stroke-width="2" stroke-miterlimit="10"/>
<path d="M1516.16 823.412C1516.06 814.505 1516.84 805.583 1518.46 796.817C1523.24 771.199 1535.42 746.77 1555.06 726.944C1581.21 700.533 1615.67 687.269 1650.33 687.121L1648.5 527.073L1647.56 444.25C1550.67 444.087 1454.2 480.89 1381.11 554.695C1308.03 628.501 1273.68 721.358 1273.28 816.241C1273.39 818.496 1273.47 820.76 1273.5 823.015L1516.16 823.412Z" stroke="#7D7D7D" stroke-opacity="0.6" stroke-width="2" stroke-miterlimit="10"/>
<path d="M1658.43 1393.92L1657.62 1322.11L1656.24 1201.42L1655.31 1120.22L1654.68 1064.35C1639.1 1064.32 1623.54 1066.96 1608.75 1072.24C1590.38 1078.8 1573.2 1089.44 1558.59 1104.18C1538.3 1124.67 1525.97 1150.09 1521.56 1176.65C1514.51 1219.07 1527.63 1264.41 1560.8 1297.25C1566.74 1303.13 1571.8 1309.17 1576.09 1315.33C1638.78 1405.13 1534.93 1518.64 1534.93 1518.64L1658.43 1393.92Z" stroke="#7D7D7D" stroke-opacity="0.6" stroke-width="2" stroke-miterlimit="10"/>
</g>
</g>
</svg>
