<svg width="1546" height="410" viewBox="0 0 1546 410" fill="none" xmlns="http://www.w3.org/2000/svg">
<rect x="6.5" y="6.5" width="1533" height="397" fill="url(#paint0_linear_365_1366)" stroke="white" stroke-width="13"/>
<mask id="mask0_365_1366" style="mask-type:alpha" maskUnits="userSpaceOnUse" x="0" y="0" width="531" height="410">
<rect width="531" height="410" transform="matrix(-1 0 0 1 531 0)" fill="#DC4A2D"/>
</mask>
<g mask="url(#mask0_365_1366)">
<g opacity="0.2">
<path d="M-109.742 340.258L-3.2056 446.794L-2.79252 383.969C-41.6078 384.231 -80.3256 369.674 -109.742 340.258Z" stroke="white" stroke-width="2" stroke-miterlimit="10"/>
<path d="M-3.20551 446.794L104.741 338.848C74.9356 368.653 36.0228 383.72 -2.79242 383.969L-3.20551 446.794Z" stroke="white" stroke-width="2" stroke-miterlimit="10"/>
<path d="M408.445 -168.137C394.356 -85.7979 355.344 -6.60302 291.483 57.258C244.691 104.051 189.663 137.505 131.199 157.588C163.032 215.098 154.126 289.463 104.741 338.848L576.795 -133.207C576.795 -133.207 483.144 -219.738 408.445 -168.137Z" stroke="white" stroke-width="2" stroke-miterlimit="10"/>
<path d="M-133.817 159.332C-192.022 140.015 -246.615 107.282 -292.796 61.101C-372.935 -19.0381 -412.581 -124.508 -411.886 -230.243L-678.489 -228.49L-109.741 340.259C-158.48 291.519 -166.41 217.266 -133.817 159.332Z" stroke="white" stroke-width="2" stroke-miterlimit="10"/>
<path d="M293.284 -123.496C277.75 -83.1148 253.66 -45.1848 221.012 -12.5369C160.866 47.6086 82.8058 78.7264 4.48649 80.7138C41.5116 81.7478 78.0648 96.2784 106.152 124.365C116.251 134.464 124.595 145.664 131.199 157.588C189.663 137.505 244.691 104.051 291.484 57.2581C355.345 -6.60294 394.356 -85.7978 408.445 -168.137C403.332 -164.6 398.296 -160.432 393.396 -155.532C366.041 -128.177 328.414 -117.481 293.284 -123.496Z" stroke="white" stroke-width="2" stroke-miterlimit="10"/>
<path d="M-1.45229 180.191L-0.798751 80.8159C-2.67468 80.835 -4.54365 80.8204 -6.41931 80.7991C-43.3475 82.4068 -79.9603 97.4052 -108.331 125.776C-118.564 136.009 -127.056 147.319 -133.818 159.331C-166.41 217.265 -158.481 291.519 -109.742 340.258C-80.3256 369.674 -41.6078 384.231 -2.79248 383.969L-1.45229 180.191Z" stroke="white" stroke-width="2" stroke-miterlimit="10"/>
<path d="M131.199 157.588C124.601 145.671 116.257 134.471 106.152 124.365C78.0648 96.2785 41.5048 81.7546 4.48646 80.7139C2.73138 80.7591 0.969641 80.7975 -0.791939 80.8091L-1.44546 180.184L-2.78571 383.976C36.0228 383.72 74.9423 368.66 104.748 338.854C154.126 289.463 163.032 215.099 131.199 157.588Z" stroke="white" stroke-width="2" stroke-miterlimit="10"/>
<path d="M-0.797769 80.8149C0.963389 80.8035 2.7247 80.7652 4.47936 80.7202C2.72531 80.6711 0.964434 80.6421 -0.796723 80.6535L-0.797769 80.8149Z" stroke="white" stroke-width="2" stroke-miterlimit="10"/>
<path d="M-6.41836 80.7979C-4.54982 80.8127 -2.67462 80.8341 -0.799145 80.8152L-0.798099 80.6539C-2.67349 80.6593 -4.54921 80.7186 -6.41836 80.7979Z" stroke="white" stroke-width="2" stroke-miterlimit="10"/>
<path d="M293.284 -123.496C271.29 -127.258 250.274 -137.581 233.375 -154.48C221.218 -166.636 212.465 -180.926 207.106 -196.18C202.789 -208.455 200.676 -221.357 200.754 -234.273L114.41 -233.705C114.052 -204.974 102.824 -176.218 80.7539 -154.148C64.1863 -137.581 43.8534 -127.12 22.5861 -122.792C15.3017 -121.305 7.91447 -120.53 0.525289 -120.488L-0.79747 80.641C0.96411 80.6294 2.72541 80.6581 4.47987 80.7071C82.8059 78.7263 160.866 47.6085 221.012 -12.537C253.66 -45.1848 277.75 -83.1148 293.284 -123.496Z" stroke="white" stroke-width="2" stroke-miterlimit="10"/>
<path d="M0.525143 -120.475C-6.85736 -120.426 -14.2485 -121.104 -21.5073 -122.488C-42.7195 -126.551 -62.9165 -136.745 -79.2676 -153.096C-101.049 -174.878 -111.901 -203.488 -111.88 -232.217L-244.536 -231.344L-313.184 -230.893C-313.719 -150.593 -283.614 -70.4877 -222.745 -9.61862C-161.876 51.2505 -85.057 80.0858 -6.41925 80.799C-4.54965 80.7195 -2.67347 80.66 -0.804315 80.6477L0.525143 -120.475Z" stroke="white" stroke-width="2" stroke-miterlimit="10"/>
<path d="M473.933 -236.069L414.416 -235.678L314.382 -235.02L247.079 -234.577L200.767 -234.273C200.682 -221.363 202.803 -208.455 207.119 -196.18C212.478 -180.926 221.225 -166.643 233.388 -154.48C250.287 -137.581 271.303 -127.258 293.297 -123.496C328.427 -117.482 366.054 -128.177 393.41 -155.532C398.31 -160.432 403.339 -164.607 408.459 -168.137C483.144 -219.738 576.795 -133.207 576.795 -133.207L473.933 -236.069Z" stroke="white" stroke-width="2" stroke-miterlimit="10"/>
</g>
</g>
<mask id="mask1_365_1366" style="mask-type:alpha" maskUnits="userSpaceOnUse" x="1020" y="0" width="526" height="410">
<rect width="526" height="410" transform="matrix(1 0 0 -1 1020 410)" fill="#DC4A2D"/>
</mask>
<g mask="url(#mask1_365_1366)">
<g opacity="0.2">
<path d="M1538.4 286.688L1537.71 180.426L1458.28 179.904L1255.18 383.004L1406.98 534.806C1407.58 534.204 1408.2 533.618 1408.81 533.032" stroke="white" stroke-width="2" stroke-miterlimit="10"/>
<path d="M1202.94 595.141C1202.87 595.211 1202.8 595.272 1202.73 595.342L1289.74 682.355L1287.99 415.814L1255.18 383.004L1202.1 436.089C1246.16 480.372 1246.56 551.521 1202.94 595.141Z" stroke="white" stroke-width="2" stroke-miterlimit="10"/>
<path d="M1617.13 180.944L1537.18 101L1537.71 180.426L1617.13 180.944Z" stroke="white" stroke-width="2" stroke-miterlimit="10"/>
<path d="M1537.18 101L1458.28 179.9L1537.71 180.426L1537.18 101Z" stroke="white" stroke-width="2" stroke-miterlimit="10"/>
<path d="M1538.4 285.298L1552.54 338.329L1566.68 391.361L1539.1 391.18L1539.09 391.184L1539.68 481.531C1587.64 481.851 1635.71 500.135 1672.94 536.299C1714.87 474.151 1707.83 388.473 1652.16 332.8C1620.62 301.265 1579.45 285.328 1538.39 285.058L1538.39 285.314L1538.4 285.302L1538.4 285.298Z" stroke="white" stroke-width="2" stroke-miterlimit="10"/>
<path d="M1539.09 391.175L1511.51 390.994L1524.96 338.144L1538.4 285.31L1538.39 285.054C1497.33 284.784 1456.37 300.176 1425.25 331.303C1370.3 386.249 1364.39 471.846 1407.13 534.547C1443.9 498.869 1491.73 481.216 1539.69 481.527L1539.09 391.175Z" stroke="white" stroke-width="2" stroke-miterlimit="10"/>
<path d="M1524.98 338.21L1511.55 390.982L1539.09 391.167L1538.4 285.458L1524.98 338.21Z" stroke="white" stroke-width="2" stroke-miterlimit="10"/>
</g>
</g>
<defs>
<linearGradient id="paint0_linear_365_1366" x1="9.39461e-06" y1="71.0609" x2="1518.83" y2="382.361" gradientUnits="userSpaceOnUse">
<stop stop-color="#DF553B"/>
<stop offset="1" stop-color="#C93D22"/>
</linearGradient>
</defs>
</svg>
