<svg width="62" height="62" viewBox="0 0 62 62" fill="none" xmlns="http://www.w3.org/2000/svg">
<path d="M46 31.0919C46 22.7567 39.2846 16 31.0019 16C22.7154 16.0019 16 22.7567 16 31.0937C16 38.6247 21.4856 44.8676 28.6547 46V35.4544H24.8489V31.0937H28.6584V27.766C28.6584 23.9846 30.8988 21.8961 34.324 21.8961C35.9663 21.8961 37.6817 22.1905 37.6817 22.1905V25.9025H35.79C33.9284 25.9025 33.3472 27.0667 33.3472 28.261V31.0919H37.5054L36.8418 35.4526H33.3453V45.9981C40.5144 44.8658 46 38.6228 46 31.0919Z" fill="#4D6DAB"/>
<rect x="0.375" y="0.375" width="61.25" height="61.25" stroke="#7D7D7D" stroke-opacity="0.6" stroke-width="0.75"/>
</svg>
