<svg width="145" height="132" viewBox="0 0 145 132" fill="none" xmlns="http://www.w3.org/2000/svg">
<g opacity="0.25" clip-path="url(#clip0_434_3517)">
<path d="M139.701 56.5059C147.591 89.6599 130.215 118.699 111.557 129.34C135.213 112.042 144.751 87.1701 139.701 56.5059Z" fill="#7D7D7D"/>
<path d="M110.039 126.116C120.729 118.385 128.54 108.399 133.211 96.0548C135.448 90.1447 137.018 84.0643 137.476 77.6825C137.699 74.4457 137.947 71.2221 137.699 67.9984C137.437 64.6568 137.398 61.2628 136.508 57.9867C142.815 82.1511 133.381 111.701 108.835 127.361C108.835 127.361 109.581 126.457 110.039 126.129V126.116Z" fill="#7D7D7D"/>
<path d="M142.92 56.3749C147.892 73.9478 144.765 103.197 124.549 122.696C132.936 113.824 138.759 103.485 141.951 91.7304C145.118 80.0544 145.563 68.2474 142.92 56.3749Z" fill="#7D7D7D"/>
<path d="M115.063 117.86C119.237 113.641 122.914 109.12 125.858 103.917C129.364 97.719 131.863 91.2062 133.355 84.2871C133.97 81.4172 134.454 78.5212 134.546 75.5727C134.585 74.3016 134.807 73.0305 135.095 71.8249C135.121 92.2283 127.676 109.08 111.334 121.713C111.334 121.713 113.807 119.145 115.05 117.887L115.063 117.86Z" fill="#7D7D7D"/>
<path d="M102.764 93.814C100.422 91.2718 100.174 90.5117 97.8968 89.1882C101.482 87.0129 107.147 89.2275 108.351 93.2636C108.757 94.6396 109.018 94.7051 109.568 97.4177C109.843 98.7937 110.183 98.6364 108.992 98.7544C100.317 99.6192 96.3136 98.7544 96.5884 90.2496C98.7735 91.298 99.8333 93.814 102.764 93.814Z" fill="#7D7D7D"/>
<path d="M36.623 98.7675C37.0156 92.307 40.3782 86.6066 48.1896 89.0571C46.9204 90.9049 45.2718 92.2939 43.2044 93.8926C46.0568 93.7092 47.483 91.7828 49.2886 90.551C49.9821 94.2071 48.098 96.6577 44.8138 97.7715C42.21 98.6626 39.5016 98.8985 36.6361 98.7675H36.623Z" fill="#7D7D7D"/>
<path d="M113.82 60.8173C113.31 63.8706 112.46 66.6094 110.222 68.4964C107.919 70.449 105.211 70.7111 102.411 69.073C103.34 67.6053 104.818 66.6356 106.362 65.181C104.007 64.9583 102.908 66.4653 101.573 67.5136C100.945 63.7789 103.34 61.1187 107.16 60.6469C109.267 60.3848 111.426 60.411 113.833 60.8173H113.82Z" fill="#7D7D7D"/>
<path d="M44.9837 67.5398C43.1912 66.0983 41.6603 64.7616 39.0304 64.8534C40.7444 66.3866 42.5239 67.317 43.6361 68.9419C39.9463 71.3531 36.5313 70.1999 34.1369 66.0983C33.2471 64.5782 32.8546 62.8353 32.2266 61.0269C35.3406 60.2144 38.4154 60.2406 41.3463 61.3152C44.0155 62.298 44.7482 64.6961 44.9837 67.5266V67.5398Z" fill="#7D7D7D"/>
<path d="M124.432 76.1101C122.351 81.9939 116.306 85.5845 111.426 81.3125C113.153 80.1986 115.011 79.3468 117.222 78.4819C114.645 77.9316 112.643 78.9668 110.471 79.6351C112.289 75.481 113.755 74.5113 117.942 74.7341C120.127 74.852 122.247 75.4024 124.419 76.0969L124.432 76.1101Z" fill="#7D7D7D"/>
<path d="M21.9033 76.1886C24.7164 75.232 27.4641 74.5113 30.3688 74.7602C33.0642 74.983 35.3409 77.1977 35.4717 79.6744C33.2866 78.5343 30.9838 77.9184 28.4324 78.1936C30.6305 79.1109 32.8156 80.0413 34.7913 81.4041C29.2043 85.8596 23.6435 81.4435 21.9033 76.2017V76.1886Z" fill="#7D7D7D"/>
<path d="M73.416 37.8454C74.031 35.8404 73.4422 33.4161 73.259 32.2105C72.33 34.032 72.9057 36.0763 71.872 37.7536C70.1842 35.8273 69.0066 33.6127 69.4384 31.149C69.844 28.8296 71.1393 26.9557 72.7879 25.3045C73.416 24.6886 73.8347 25.0424 74.0702 25.6714C74.816 27.6502 75.8758 29.511 76.2422 31.6339C76.6216 33.8747 76.1768 36.7184 73.4029 37.8454H73.416Z" fill="#7D7D7D"/>
<path d="M20.9219 63.045C23.264 63.0712 25.5014 62.7567 27.6864 63.3726C29.7145 63.9361 31.4286 64.9189 32.0173 67.1729C32.1613 67.7495 32.2398 68.2736 31.8603 68.7978C30.251 68.0771 29.2696 66.2556 27.0191 66.4915C28.6023 67.6709 30.1594 68.5882 31.2846 70.0165C26.7575 72.4801 21.7462 68.3654 20.9219 63.045Z" fill="#7D7D7D"/>
<path d="M119.041 66.3604C116.986 66.4521 115.613 67.7363 114.278 69.073C113.637 67.8018 114.553 65.4431 116.162 64.434C117.837 63.3857 119.669 62.9008 121.644 63.0057C122.73 63.0581 123.803 63.1105 124.85 62.7174C125.23 64.3161 123.673 68.2081 122.129 69.1516C119.865 70.5275 116.738 71.6676 114.919 69.9116C115.953 68.2998 117.915 67.8018 119.172 66.4652C119.42 66.5438 119.538 66.3997 119.76 65.7314C119.42 66.2293 119.119 65.9541 119.054 66.3735L119.041 66.3604Z" fill="#7D7D7D"/>
<path d="M93.0949 65.6659C91.9959 64.3555 91.7996 62.4291 92.637 61.0138C94.0239 58.6682 96.2875 57.6067 98.6296 56.5715C100.998 61.5773 99.5193 65.1286 94.7174 66.3342C94.5691 65.6353 94.7784 64.4166 95.3454 62.6781C93.7491 63.3988 93.6576 64.8796 93.0949 65.6528V65.6659Z" fill="#7D7D7D"/>
<path d="M51.4606 66.4653C49.5242 66.0197 47.9541 65.1679 47.1428 63.3988C46.2531 61.4725 46.7765 59.4806 47.012 57.4364C47.2213 55.6804 47.012 56.5191 48.3466 56.8205C50.3354 57.266 51.9971 58.642 53.2401 60.4766C54.5093 62.3505 54.0644 63.9885 53.1354 66.0852C52.6906 64.6044 51.9971 63.6216 51.2382 62.3767C50.584 63.8837 51.8663 64.9845 51.4606 66.4653Z" fill="#7D7D7D"/>
<path d="M113.441 58.2619C114.383 56.5452 116.149 56.2176 117.262 54.5796C115.207 54.8941 113.873 55.7983 112.669 57.0825C112.224 52.7974 116.097 50.9235 121.893 52.0374C121.475 54.3568 120.834 56.5452 118.806 58.0129C117.157 59.2054 115.404 58.8647 113.441 58.2488V58.2619Z" fill="#7D7D7D"/>
<path d="M103.065 57.8033C103.981 56.5846 104.648 55.9424 105.839 55.2086C104.204 54.5796 103.576 56.0604 102.411 56.4011C102.058 54.7237 102.817 53.4657 104.073 52.6664C106.179 51.3297 108.508 51.5525 110.994 52.1291C110.34 54.7368 109.934 57.2398 107.161 58.4061C105.761 58.9958 104.609 58.9302 103.078 57.7901L103.065 57.8033Z" fill="#7D7D7D"/>
<path d="M43.9503 56.5453C42.6287 55.4838 41.268 54.6451 39.4754 54.632C40.7053 55.6673 41.9353 56.6894 43.1914 57.7378C39.3708 60.1096 37.1726 58.642 35.1445 52.2995C37.3819 51.2773 39.6979 51.5394 41.8044 52.3388C43.453 52.9678 43.754 54.8286 43.9633 56.5322L43.9503 56.5453Z" fill="#7D7D7D"/>
<path d="M32.5538 58.1177C30.8528 59.1661 28.3406 58.9957 26.9144 57.6329C25.3967 56.2045 24.6901 54.3437 24.52 52.1684C26.4434 51.6704 33.365 50.6876 33.2734 56.637C31.7949 55.6934 30.5257 54.3699 28.3275 54.4223C29.8977 55.759 31.651 56.4797 32.5669 58.1177H32.5538Z" fill="#7D7D7D"/>
<path d="M110.667 88.4281C112.302 87.6287 113.807 87.5239 115.115 88.5198C117.091 90.0137 117.837 92.0842 117.471 94.5478C112.485 95.2686 109.646 94.0499 109.856 89.8172C111.059 89.8041 112.171 91.7173 113.702 91.5338C112.891 90.5641 111.844 89.2144 110.667 88.4412V88.4281Z" fill="#7D7D7D"/>
<path d="M35.2753 88.664C34.9482 89.791 33.7444 90.171 33.0248 91.2586C34.8566 91.0359 35.1706 90.0268 36.2435 89.5158C36.5837 92.307 35.6155 93.8402 33.0117 94.4561C32.0304 94.692 31.2977 94.6527 30.0678 94.7313C27.6079 94.941 27.9088 94.5478 28.4715 92.9229C29.0341 91.298 29.3874 89.5551 31.0229 88.5067C32.436 87.6025 33.7968 87.6025 35.2753 88.664Z" fill="#7D7D7D"/>
<path d="M100.723 46.7432C101.285 45.4328 102.986 45.5114 103.444 44.1616C101.874 43.6244 101.194 45.2493 99.9901 45.4852C99.9509 41.9863 102.986 40.4924 108.508 41.1476C108.482 45.1445 105.342 48.5516 100.723 46.7301V46.7432Z" fill="#7D7D7D"/>
<path d="M45.7689 45.7211C44.709 44.7645 43.9501 43.3623 42.0922 43.4409C43.0081 44.6727 44.238 45.4066 44.9315 46.717C43.4006 47.5557 41.9875 47.2281 40.6398 46.3239C38.494 44.8824 37.8921 42.7464 37.9183 40.3221C41.595 39.929 46.6978 41.4491 45.7558 45.7211H45.7689Z" fill="#7D7D7D"/>
<path d="M101.966 77.9053C101.246 73.9216 106.087 72.6112 110.143 73.5023C110.039 78.0495 105.865 81.0766 102.62 78.9406C103.47 77.7219 104.87 77.1322 106.035 75.9004C104.308 76.0969 103.261 77.106 101.966 77.9053Z" fill="#7D7D7D"/>
<path d="M36.0605 73.4106C37.5652 73.4106 39.0699 73.332 40.5746 73.4237C42.9298 73.5678 44.4214 75.4024 44.2513 77.8267C43.3092 77.4074 42.5634 76.5163 41.3073 76.477C41.7391 77.6302 43.0737 77.8792 43.3616 78.9799C39.7503 81.2732 36.1783 77.3288 36.0605 73.4106Z" fill="#7D7D7D"/>
<path d="M50.3877 47.8046C55.5167 46.3631 58.3299 48.3812 58.0813 51.6311C57.2177 51.2773 56.5766 50.5958 55.4251 50.6876C56.2887 51.5394 57.0999 51.7883 57.1261 53.0857C55.9223 53.7016 54.4962 53.754 53.3578 53.2298C51.1989 52.2208 50.8456 50.0062 50.3877 47.8177V47.8046Z" fill="#7D7D7D"/>
<path d="M95.8818 47.7654C95.607 49.9145 95.0183 51.8408 93.2257 52.9285C91.878 53.7409 90.2817 53.7409 88.764 52.9285C89.7976 51.6443 91.2369 50.9759 92.5846 49.6C90.6219 49.9407 89.2743 50.6352 88.0574 52.0374C87.6387 50.5173 88.3453 49.3641 89.1696 48.6172C91.0406 46.9267 93.3565 47.1102 95.8818 47.7654Z" fill="#7D7D7D"/>
<path d="M52.128 41.8553C51.3691 41.0428 51.1859 39.8241 49.7336 39.6276C50.2439 40.6366 50.6887 41.5146 51.1336 42.3926C47.1429 42.7988 45.4288 40.5842 45.8083 35.539C48.8177 35.1328 53.8682 38.1075 52.1149 41.8553H52.128Z" fill="#7D7D7D"/>
<path d="M80.2331 33.8879C80.6387 33.1278 80.7172 32.394 80.4555 31.5684C79.5396 31.9615 79.8536 33.0361 79.2779 33.6913C77.8256 32.6954 78.1003 31.0966 78.4798 30.0221C79.2256 27.9254 81.1621 26.7984 83.0331 25.7894C84.5247 27.5192 84.7471 29.9566 83.6742 31.9877C82.9808 33.2851 82.0649 34.2679 80.2462 33.8879H80.2331Z" fill="#7D7D7D"/>
<path d="M65.2647 44.3975C65.1076 43.6244 65.3824 42.825 64.6628 42.2615C63.5375 42.7202 64.8329 44.0568 63.9431 44.6334C60.358 42.9954 60.2403 39.051 62.9487 35.8404C64.7936 37.6619 67.031 39.1427 66.7039 42.2615C66.5993 43.2706 66.3245 44.0175 65.2647 44.3975Z" fill="#7D7D7D"/>
<path d="M100.409 35.4472C101.076 40.0862 98.7472 42.9429 95.1491 42.3794C95.3322 41.1345 96.5622 40.4138 96.8631 39.064C95.4631 39.562 95.0575 40.8987 94.0762 41.6194C92.5584 38.2385 96.2874 35.5914 100.409 35.4472Z" fill="#7D7D7D"/>
<path d="M83.3076 35.4604C84.6029 37.7536 85.6889 39.5751 84.8515 41.816C84.3543 43.1264 83.6347 44.3189 81.9468 44.463C81.6589 43.323 81.9468 42.196 82.1431 40.8724C80.7823 41.8422 81.2272 43.2574 80.6907 44.2796C78.9505 42.6939 78.7673 41.0952 80.1804 39.2344C80.5599 38.7364 80.9393 38.2385 81.3318 37.7536C81.8945 37.0722 82.4702 36.417 83.2945 35.4472L83.3076 35.4604Z" fill="#7D7D7D"/>
<path d="M58.5522 60.0572C58.6961 61.2104 58.683 62.1932 58.2382 63.1236C55.4905 63.1236 54.797 59.7951 55.9746 57.2791C58.2251 53.3347 55.7522 54.3699 59.298 57.0301C60.8027 58.1571 61.7578 61.0925 59.3111 62.9009C59.0363 62.0622 59.4681 60.9614 58.5522 60.0441V60.0572Z" fill="#7D7D7D"/>
<path d="M87.7563 63.1367C87.8087 62.0622 87.6517 61.1973 88.0573 59.8737C86.7489 60.8041 87.1283 62.1408 87.0367 63.0843C85.9507 63.0188 85.3881 62.2718 85.2442 60.9745C85.0348 59.0744 86.2909 57.0301 88.8816 55.2479C91.7994 59.4282 91.3807 62.6912 87.7563 63.1367Z" fill="#7D7D7D"/>
<path d="M66.0232 32.2629C65.5129 33.0491 65.84 33.5733 66.0232 34.163C64.8064 34.6741 63.9951 34.0058 63.3278 33.2195C61.6269 31.1883 62.2811 29.0654 63.2232 26.9687C66.1279 27.4012 69.6083 30.5855 67.1092 33.914C66.769 33.403 66.4419 32.9181 66.0232 32.2629Z" fill="#7D7D7D"/>
<path d="M90.5434 28.1743C91.9173 31.6339 90.7004 34.2809 87.4163 35.1196C86.7621 34.5823 88.306 32.8788 87.8742 32.2891C87.1808 32.7608 86.7359 34.3203 86.1602 34.4644C84.2891 31.9877 87.2593 29.7075 90.5303 28.1874L90.5434 28.1743Z" fill="#7D7D7D"/>
<path d="M57.4923 42.4843C54.4829 42.2877 53.0305 39.3392 54.1165 35.7224C57.7801 36.4432 59.7951 38.802 58.5652 41.8553C57.9633 41.1214 56.6941 39.1296 56.7203 39.5358C56.7465 39.9158 57.6493 41.6063 57.5054 42.4843H57.4923Z" fill="#7D7D7D"/>
<path d="M89.1956 39.8242C88.2797 40.4532 88.2143 41.4491 87.6255 42.0912C86.8143 40.2566 87.0106 39.0903 88.3975 37.8716C89.1433 37.2295 89.9676 36.666 90.7788 36.1156C91.1059 35.8929 91.5116 35.8011 91.891 35.6439C93.1471 39.1034 92.1789 41.9602 88.8816 42.6154C88.476 41.6719 89.6928 40.938 89.1956 39.811V39.8242Z" fill="#7D7D7D"/>
<path d="M59.939 35.0541C59.5334 33.6782 59.2194 32.5381 57.9633 31.7256C57.924 33.0885 58.9446 33.9665 58.9708 35.0934C55.5558 34.8707 54.3782 31.2932 55.6474 28.2923C58.8661 29.2882 61.3914 31.7256 59.939 35.0541Z" fill="#7D7D7D"/>
<path d="M44.0156 49.2724C47.8885 50.3469 49.7988 51.3166 49.354 54.5534C48.8044 53.8851 48.3988 53.6623 47.5483 53.5837C47.7446 54.3306 48.1895 54.4748 48.2811 55.13C47.4567 55.8769 46.4231 55.2086 45.6773 54.7238C44.2511 53.7802 43.5315 51.5263 44.0156 49.2724Z" fill="#7D7D7D"/>
<path d="M102.332 49.2199C102.725 53.0726 101.351 54.881 97.9622 55.1169C97.6744 54.6844 98.4332 54.0554 98.3286 53.5312C97.7529 53.8457 97.4519 54.5927 96.9155 54.5272C96.3136 51.9849 97.7529 50.3076 102.319 49.2199H102.332Z" fill="#7D7D7D"/>
<path d="M36.4528 48.6172C33.2733 49.7703 30.7742 46.5729 30.748 43.6768C34.163 43.3099 37.2248 45.1707 37.0023 47.5688C36.5444 47.3329 35.1051 46.5467 34.6864 46.835C34.9874 46.9529 36.3743 47.9488 36.4528 48.6172Z" fill="#7D7D7D"/>
<path d="M109.856 48.6433C110.131 47.8046 110.903 47.477 111.295 46.7432C110.209 46.4942 109.869 47.5426 109.149 47.7784C108.351 45.59 110.994 43.7554 115.155 43.6113C115.351 47.1625 112.761 49.5082 109.856 48.6302V48.6433Z" fill="#7D7D7D"/>
<path d="M3.768 50.0324C-0.353547 63.9623 -0.654486 77.5253 2.95678 91.1669C6.55495 104.756 13.7382 116.183 23.787 125.906C4.14744 108.845 -6.00596 79.1371 3.768 50.0324Z" fill="#7D7D7D"/>
<path d="M5.93986 88.9785C10.8072 107.167 21.183 121.255 36.8711 131.476C31.5196 128.462 26.7831 124.675 22.5307 120.285C18.2914 115.921 14.6932 111.059 11.8278 105.687C7.981 98.5054 4.97162 90.171 5.95294 88.9785H5.93986Z" fill="#7D7D7D"/>
<path d="M42.5108 130.873C30.434 124.976 21.1704 116.052 14.6544 104.324C12.1161 99.7634 9.95715 94.9935 9.3291 89.6862C12.103 98.3744 16.1722 106.355 21.8638 113.471C27.5948 120.639 34.4771 126.457 42.5108 130.873Z" fill="#7D7D7D"/>
<path d="M34.7517 122.29C17.5589 110.234 8.6747 89.0834 10.0747 71.8774C10.2186 81.627 12.4953 90.8394 16.7608 99.5669C21.1048 108.439 27.189 115.934 34.7386 122.29H34.7517Z" fill="#7D7D7D"/>
<path d="M5.37762 87.8647C2.7346 77.1322 2.91778 66.4129 5.69164 55.7197C3.17946 66.4129 3.34956 77.1322 5.37762 87.8647Z" fill="#7D7D7D"/>
<path d="M7.20927 65.6921C6.76441 73.3319 7.44479 80.8931 8.81864 88.415C6.6074 80.9587 6.37188 73.3581 7.20927 65.6921Z" fill="#7D7D7D"/>
<path d="M23.2373 24.1776C51.0676 -4.14089 93.7747 -2.0442 118.596 21.2422C104.438 9.55314 88.6587 3.42031 70.3276 4.16726C52.0489 4.9011 36.4655 11.6629 23.2504 24.1776H23.2373Z" fill="#7D7D7D"/>
<path d="M36.2693 9.98557C37.6693 8.60961 39.5142 7.9806 41.2152 7.12882C49.0134 3.27614 57.2827 1.04841 65.9183 0.262145C70.1053 -0.11788 74.3184 -0.0654631 78.5446 0.288354C83.2811 0.694589 87.8606 1.66431 92.4401 2.76507C99.3748 4.42933 105.577 7.73162 111.609 11.4139C112.498 11.9512 113.31 12.6064 114.121 13.2748C111.609 11.545 108.939 10.0773 106.244 8.64892C103.523 7.20745 100.709 5.96253 97.7916 4.94039C92.5841 3.10579 87.2849 1.80846 81.7634 1.28428C78.1521 0.943571 74.567 0.262145 70.9165 0.445606C59.9388 0.982884 49.419 3.30235 39.5666 8.33442C38.4675 8.89791 37.3553 9.43518 36.2432 9.98557H36.2562H36.2693Z" fill="#7D7D7D"/>
<path d="M29.7273 22.9326C31.4675 20.849 33.6657 19.2896 35.8639 17.7826C44.5387 11.7939 54.208 8.30817 64.6231 7.02394C67.2007 6.70944 69.8176 6.51287 72.4999 6.73565C75.0382 6.94532 77.6943 6.78806 80.2588 6.98463C83.9094 7.25982 87.586 7.88883 91.0272 9.21237C93.5132 10.169 96.117 10.7194 98.5376 11.8988C102.659 13.9037 106.755 15.9087 110.379 18.7785C110.379 18.7785 107.33 17.0619 105.812 16.197C101.926 14.0086 97.8703 12.2526 93.6833 10.7325C89.5356 9.22547 85.2309 8.46542 80.913 7.86262C77.4195 7.37776 73.8737 7.23361 70.3279 7.39086C56.694 8.01987 44.264 12.1477 33.1685 20.1807C31.9648 21.0456 30.761 21.8974 29.7012 22.9457H29.7273V22.9326Z" fill="#7D7D7D"/>
<path d="M41.7388 18.1758C60.3184 5.9101 90.0328 6.67015 108.796 21.6615C98.7601 15.0438 87.7693 11.2567 75.7448 10.6408C63.7334 10.0249 52.4025 12.6064 41.7388 18.1889V18.1758Z" fill="#7D7D7D"/>
<path d="M36.8059 9.71037C33.6264 11.7284 30.1198 13.8776 27.2806 16.1577C24.4543 18.4117 21.8637 20.8884 19.4692 23.3651C22.4917 19.5255 30.5385 12.8292 34.8825 10.4966C35.3405 10.2477 36.1124 9.73658 38.1798 8.5965C37.9835 8.96343 36.8059 9.71037 36.8059 9.71037Z" fill="#7D7D7D"/>
<path d="M29.7012 22.9195C29.5573 22.9851 29.4003 23.0637 29.2563 23.1292C29.4134 23.0637 29.5704 22.9851 29.7274 22.9195H29.7012Z" fill="#7D7D7D"/>
<path d="M59.4814 130.493C64.5581 127.898 65.8272 119.158 65.9973 114.388C66.2329 107.416 64.702 100.694 61.7057 94.3906C59.4421 89.6207 55.1636 87.406 50.27 86.2529C45.7952 85.2045 42.197 84.8507 37.6306 85.0341C37.0811 85.0604 35.9558 85.1521 35.0269 85.1521C35.7465 83.4354 40.2344 81.745 46.5018 81.0504C50.7672 80.5787 54.8626 81.9284 59.1019 82.885C57.9767 75.0093 57.8982 67.4612 63.0534 60.6994C63.0141 64.7093 63.2496 69.0206 63.4852 72.1395C63.7338 75.219 64.087 78.2461 64.9637 81.2208C66.0759 85.0079 67.6067 88.5985 69.36 92.1367C70.6292 94.7051 71.7283 97.3391 72.5133 100.13C72.6049 100.471 72.5657 100.314 72.9189 101.139C74.7246 95.9501 76.347 92.3726 78.4143 88.2316C80.5078 84.0382 81.6069 79.5041 82.1303 74.8128C82.549 71.0518 83.0723 64.0934 82.9153 60.5815C85.3228 63.9624 86.5658 67.5005 87.2724 71.3794C87.9789 75.2976 87.1415 79.1241 86.8275 83.1602C91.2893 81.6925 95.4501 80.6442 99.8202 81.1028C104.112 81.5615 108.22 82.5836 112.133 85.2962C110.484 85.2962 109.136 85.3224 107.775 85.2962C103.196 85.1652 98.6557 85.3356 94.2463 86.777C89.7061 88.2578 85.977 90.9049 83.7396 95.1507C81.9471 98.5316 81.0835 102.319 80.2461 106.054C79.5919 108.963 79.4872 111.924 79.6573 114.886C79.8929 119.263 81.8555 127.414 85.7939 129.772C86.0032 129.903 86.2518 130.048 86.2649 130.559C77.5115 132.629 68.7581 132.406 59.5075 130.519L59.4814 130.493Z" fill="#7D7D7D"/>
<path d="M72.8797 92.0056C70.1581 87.7729 68.4441 83.3699 67.4889 78.6916C66.6123 74.4065 66.7562 70.0166 66.573 65.6659C66.3506 60.3324 65.2908 55.2218 62.0066 50.7532C59.7561 47.6999 56.7206 45.8128 53.2925 44.2272C58.7094 44.2796 68.3263 47.7392 73.1544 59.4545C75.6404 53.0857 79.6442 48.1847 85.9247 45.4983C87.9135 44.6466 89.9939 43.8865 92.7023 44.201C89.6144 45.5376 87.1677 47.1102 85.1658 49.2986C83.2031 51.4477 81.5938 53.8065 80.848 56.6501C80.2984 58.7468 79.4087 62.4816 79.1078 65.299C78.6367 68.5096 79.0293 77.486 77.2236 83.0816C76.2292 86.1218 75.2741 89.3717 72.8927 92.0056H72.8797Z" fill="#7D7D7D"/>
<path d="M72.9975 51.1725C75.8808 51.1725 78.2181 48.8316 78.2181 45.9439C78.2181 43.0562 75.8808 40.7153 72.9975 40.7153C70.1142 40.7153 67.7769 43.0562 67.7769 45.9439C67.7769 48.8316 70.1142 51.1725 72.9975 51.1725Z" fill="#7D7D7D"/>
<path d="M94.7695 79.3862C97.6527 79.3862 99.9901 77.0453 99.9901 74.1576C99.9901 71.2699 97.6527 68.929 94.7695 68.929C91.8862 68.929 89.5488 71.2699 89.5488 74.1576C89.5488 77.0453 91.8862 79.3862 94.7695 79.3862Z" fill="#7D7D7D"/>
<path d="M51.4086 79.3862C54.2919 79.3862 56.6292 77.0453 56.6292 74.1576C56.6292 71.2699 54.2919 68.929 51.4086 68.929C48.5253 68.929 46.188 71.2699 46.188 74.1576C46.188 77.0453 48.5253 79.3862 51.4086 79.3862Z" fill="#7D7D7D"/>
</g>
<defs>
<clipPath id="clip0_434_3517">
<rect width="145" height="132" fill="white"/>
</clipPath>
</defs>
</svg>
