<svg width="18" height="14" viewBox="0 0 18 14" xmlns="http://www.w3.org/2000/svg">
<path d="M7.70611 2.37321C7.80436 2.28166 7.88316 2.17126 7.93782 2.0486C7.99248 1.92593 8.02187 1.79351 8.02423 1.65924C8.0266 1.52497 8.0019 1.3916 7.95161 1.26708C7.90131 1.14256 7.82645 1.02945 7.7315 0.934494C7.63654 0.839536 7.52343 0.764676 7.39891 0.714382C7.27439 0.664087 7.14102 0.639388 7.00675 0.641757C6.87248 0.644126 6.74006 0.673515 6.61739 0.728171C6.49473 0.782827 6.38433 0.861629 6.29278 0.959879L0.959446 6.29321C0.772178 6.48071 0.666992 6.73488 0.666992 6.99988C0.666992 7.26488 0.772178 7.51904 0.959446 7.70654L6.29278 13.0399C6.38433 13.1381 6.49473 13.2169 6.61739 13.2716C6.74006 13.3262 6.87248 13.3556 7.00675 13.358C7.14102 13.3604 7.27439 13.3357 7.39891 13.2854C7.52343 13.2351 7.63654 13.1602 7.7315 13.0653C7.82645 12.9703 7.90131 12.8572 7.95161 12.7327C8.0019 12.6082 8.0266 12.4748 8.02423 12.3405C8.02187 12.2062 7.99248 12.0738 7.93782 11.9512C7.88316 11.8285 7.80436 11.7181 7.70611 11.6265L4.07945 7.99988L16.9994 7.99988C17.2647 7.99988 17.519 7.89452 17.7066 7.70698C17.8941 7.51945 17.9994 7.26509 17.9994 6.99988C17.9994 6.73466 17.8941 6.48031 17.7066 6.29277C17.519 6.10524 17.2647 5.99988 16.9994 5.99988L4.07945 5.99988L7.70611 2.37321Z"/>
</svg>
