<svg width="62" height="62" viewBox="0 0 62 62" fill="none" xmlns="http://www.w3.org/2000/svg">
<path d="M31.103 20H31.281C32.9251 20.0059 41.2556 20.0646 43.5018 20.6558C44.1808 20.8362 44.7996 21.1878 45.2962 21.6756C45.7929 22.1634 46.15 22.7702 46.332 23.4354C46.534 24.1792 46.676 25.1638 46.772 26.1797L46.792 26.3833L46.836 26.8922L46.852 27.0958C46.982 28.885 46.998 30.5605 47 30.9266V31.0734C46.998 31.4532 46.98 33.2423 46.836 35.1058L46.82 35.3113L46.802 35.5149C46.702 36.6346 46.554 37.7464 46.332 38.5646C46.1506 39.2301 45.7936 39.8372 45.2969 40.325C44.8001 40.8129 44.1811 41.1644 43.5018 41.3442C41.1816 41.955 32.3631 41.998 31.141 42H30.857C30.239 42 27.6828 41.9883 25.0026 41.8982L24.6626 41.8865L24.4886 41.8786L24.1466 41.8649L23.8046 41.8512C21.5844 41.7553 19.4703 41.6007 18.4962 41.3423C17.8172 41.1626 17.1983 40.8114 16.7016 40.3239C16.2048 39.8364 15.8477 39.2297 15.666 38.5646C15.444 37.7484 15.296 36.6346 15.196 35.5149L15.18 35.3094L15.164 35.1058C15.0653 33.7794 15.0106 32.4502 15 31.1204L15 30.8796C15.004 30.4588 15.02 29.0044 15.128 27.3992L15.142 27.1976L15.148 27.0958L15.164 26.8922L15.208 26.3833L15.228 26.1797C15.324 25.1638 15.466 24.1772 15.668 23.4354C15.8494 22.7699 16.2064 22.1628 16.7031 21.675C17.1999 21.1871 17.8189 20.8356 18.4982 20.6558C19.4723 20.4013 21.5864 20.2447 23.8066 20.1468L24.1466 20.1331L24.4906 20.1214L24.6626 20.1155L25.0046 20.1018C26.9082 20.0418 28.8125 20.0086 30.717 20.002H31.103V20ZM27.8008 26.2835V35.7146L36.1153 31.001L27.8008 26.2835Z" fill="#F24E1E"/>
<rect x="0.375" y="0.375" width="61.25" height="61.25" stroke="#7D7D7D" stroke-opacity="0.6" stroke-width="0.75"/>
</svg>
