<svg width="197" height="202" viewBox="0 0 197 202" fill="none" xmlns="http://www.w3.org/2000/svg">
<path d="M154.703 129.793C150.289 125.002 149.82 123.57 145.529 121.076C152.286 116.976 162.966 121.15 165.235 128.756C165.999 131.349 166.492 131.472 167.528 136.584C168.046 139.177 168.687 138.881 166.443 139.103C150.091 140.733 142.545 139.103 143.063 123.076C147.181 125.052 149.179 129.793 154.703 129.793Z" fill="#FDD998"/>
<path d="M30.032 139.128C30.7719 126.953 37.1103 116.211 51.8341 120.829C49.4418 124.311 46.3342 126.928 42.4375 129.941C47.814 129.595 50.5023 125.965 53.9058 123.644C55.2129 130.534 51.6615 135.152 45.471 137.251C40.5631 138.93 35.4578 139.375 30.0566 139.128H30.032Z" fill="#FDD998"/>
<path d="M175.544 67.6104C174.582 73.3644 172.979 78.5257 168.762 82.0818C164.421 85.7614 159.316 86.2553 154.038 83.1684C155.789 80.4025 158.576 78.5751 161.486 75.8339C157.047 75.4141 154.975 78.254 152.459 80.2296C151.275 73.1915 155.789 68.1784 162.99 67.2893C166.961 66.7954 171.031 66.8448 175.569 67.6104H175.544Z" fill="#FDD998"/>
<path d="M45.7916 80.2788C42.4127 77.5623 39.5272 75.0434 34.5699 75.2163C37.8007 78.1056 41.1549 79.859 43.2513 82.9212C36.2963 87.4651 29.8593 85.2919 25.3459 77.5623C23.6688 74.6977 22.9289 71.4132 21.7451 68.0053C27.6149 66.4742 33.4107 66.5236 38.9352 68.5486C43.9665 70.4007 45.3476 74.9199 45.7916 80.2541V80.2788Z" fill="#FDD998"/>
<path d="M195.545 96.4298C191.624 107.518 180.23 114.284 171.03 106.234C174.286 104.135 177.788 102.53 181.956 100.9C177.097 99.8625 173.324 101.813 169.23 103.073C172.658 95.2445 175.42 93.417 183.313 93.8368C187.431 94.0591 191.427 95.0963 195.521 96.4051L195.545 96.4298Z" fill="#FDD998"/>
<path d="M2.28613 96.5778C7.58868 94.775 12.7679 93.4168 18.2431 93.886C23.3237 94.3058 27.6151 98.4793 27.8617 103.147C23.743 100.998 19.4023 99.8375 14.593 100.356C18.7364 102.085 22.8551 103.838 26.5792 106.406C16.0481 114.803 5.56632 106.481 2.28613 96.6025V96.5778Z" fill="#FDD998"/>
<path d="M99.3842 24.3196C100.543 20.5412 99.4336 15.9726 99.0883 13.7006C97.3372 17.1333 98.4224 20.9857 96.474 24.1467C93.2925 20.5165 91.0728 16.343 91.8867 11.7003C92.6512 7.32925 95.0929 3.79783 98.2004 0.686232C99.3842 -0.474444 100.173 0.192329 100.617 1.3777C102.023 5.10668 104.021 8.6134 104.711 12.614C105.427 16.8369 104.588 22.1958 99.3596 24.3196H99.3842Z" fill="#FDD998"/>
<path d="M0.436279 71.8088C4.85096 71.8582 9.06834 71.2655 13.1871 72.4262C17.0098 73.4881 20.2407 75.3402 21.3505 79.5878C21.6218 80.6744 21.7698 81.6622 21.0546 82.65C18.021 81.2917 16.1713 77.8591 11.9292 78.3036C14.9135 80.5262 17.8484 82.2549 19.9694 84.9466C11.436 89.5893 1.99005 81.835 0.436279 71.8088Z" fill="#FDD998"/>
<path d="M185.384 78.0562C181.512 78.2291 178.922 80.6492 176.407 83.1681C175.198 80.7727 176.925 76.3275 179.958 74.426C183.115 72.4504 186.568 71.5367 190.292 71.7342C192.339 71.833 194.362 71.9318 196.335 71.1909C197.05 74.2037 194.115 81.5382 191.205 83.3163C186.938 85.9093 181.044 88.0578 177.615 84.7486C179.564 81.7111 183.263 80.7727 185.631 78.2538C186.099 78.4019 186.321 78.1303 186.741 76.8708C186.099 77.8092 185.532 77.2906 185.409 78.0809L185.384 78.0562Z" fill="#FDD998"/>
<path d="M136.477 76.7474C134.406 74.2779 134.036 70.6477 135.614 67.9806C138.229 63.5601 142.495 61.5598 146.91 59.6089C151.374 69.0425 148.587 75.7349 139.536 78.0068C139.256 76.6898 139.651 74.3931 140.72 71.1169C137.711 72.4751 137.538 75.2657 136.477 76.7227V76.7474Z" fill="#FDD998"/>
<path d="M57.9998 78.2541C54.3497 77.4145 51.3901 75.8093 49.861 72.4754C48.1839 68.8452 49.1705 65.0916 49.6144 61.2391C50.009 57.9299 49.6144 59.5104 52.13 60.0784C55.8788 60.9181 59.011 63.5111 61.354 66.9684C63.7463 70.4998 62.9078 73.5867 61.1567 77.538C60.3182 74.7474 59.011 72.8952 57.5806 70.5492C56.3474 73.3891 58.7644 75.4636 57.9998 78.2541Z" fill="#FDD998"/>
<path d="M174.829 62.7946C176.604 59.5595 179.934 58.9421 182.03 55.8552C178.158 56.4479 175.643 58.1519 173.374 60.572C172.535 52.4967 179.835 48.9653 190.761 51.0644C189.972 55.4354 188.763 59.5595 184.94 62.3254C181.833 64.5727 178.528 63.9306 174.829 62.7699V62.7946Z" fill="#FDD998"/>
<path d="M155.271 61.9305C156.997 59.6338 158.255 58.4238 160.499 57.0408C157.416 55.8554 156.233 58.646 154.038 59.2881C153.372 56.1271 154.802 53.7563 157.17 52.2499C161.141 49.731 165.531 50.1508 170.217 51.2374C168.983 56.1518 168.219 60.8686 162.99 63.0665C160.351 64.1777 158.181 64.0543 155.295 61.9058L155.271 61.9305Z" fill="#FDD998"/>
<path d="M43.8433 59.5595C41.3524 57.5592 38.7874 55.9787 35.4086 55.954C37.7269 57.9049 40.0452 59.8311 42.4129 61.8068C35.2113 66.2766 31.0679 63.5107 27.2451 51.5582C31.4625 49.632 35.8278 50.1259 39.7986 51.6323C42.9061 52.8177 43.4734 56.3244 43.868 59.5348L43.8433 59.5595Z" fill="#FDD998"/>
<path d="M22.3618 62.5229C19.1557 64.4985 14.4204 64.1775 11.7321 61.6092C8.87117 58.9174 7.53937 55.4107 7.21875 51.3113C10.8442 50.3728 23.891 48.5207 23.7183 59.7323C20.9314 57.9543 18.5391 55.46 14.3957 55.5588C17.3553 58.0777 20.6601 59.436 22.3865 62.5229H22.3618Z" fill="#FDD998"/>
<path d="M169.6 119.643C172.683 118.137 175.519 117.939 177.985 119.816C181.71 122.631 183.115 126.533 182.425 131.176C173.028 132.534 167.676 130.237 168.071 122.261C170.34 122.236 172.436 125.842 175.322 125.496C173.793 123.669 171.82 121.125 169.6 119.668V119.643Z" fill="#FDD998"/>
<path d="M27.4915 120.088C26.875 122.212 24.606 122.928 23.2495 124.977C26.7023 124.558 27.2942 122.656 29.3166 121.693C29.9578 126.953 28.1328 129.842 23.2248 131.003C21.3751 131.448 19.994 131.374 17.6756 131.522C13.039 131.917 13.6063 131.176 14.6668 128.114C15.7273 125.052 16.3932 121.767 19.476 119.791C22.1397 118.088 24.7046 118.088 27.4915 120.088Z" fill="#FDD998"/>
<path d="M150.856 41.0874C151.916 38.6179 155.123 38.7661 155.986 36.2225C153.026 35.21 151.744 38.2722 149.475 38.7167C149.401 32.1231 155.123 29.3078 165.53 30.5426C165.481 38.0746 159.562 44.4954 150.856 41.0628V41.0874Z" fill="#FDD998"/>
<path d="M47.2715 39.1615C45.2738 37.3587 43.8433 34.7163 40.3412 34.8645C42.0676 37.1858 44.3859 38.5688 45.6931 41.0383C42.8075 42.6188 40.1439 42.0014 37.6036 40.2974C33.5589 37.581 32.4244 33.5556 32.4737 28.987C39.404 28.2462 49.0226 31.1108 47.2469 39.1615H47.2715Z" fill="#FDD998"/>
<path d="M153.199 99.8129C151.843 92.3056 160.968 89.8361 168.613 91.5153C168.416 100.085 160.549 105.789 154.432 101.764C156.035 99.4672 158.674 98.3559 160.869 96.0346C157.614 96.405 155.641 98.3065 153.199 99.8129Z" fill="#FDD998"/>
<path d="M28.9714 91.3423C31.8077 91.3423 34.6439 91.1941 37.4802 91.367C41.9195 91.6386 44.7311 95.096 44.4105 99.6646C42.6348 98.8744 41.229 97.1951 38.8613 97.121C39.6752 99.2942 42.1908 99.7634 42.7334 101.838C35.9264 106.159 29.1934 98.7262 28.9714 91.3423Z" fill="#FDD998"/>
<path d="M55.9773 43.0881C65.6452 40.3716 70.9478 44.1747 70.4792 50.2991C68.8514 49.6323 67.6429 48.3482 65.4726 48.521C67.1003 50.1262 68.6294 50.5954 68.6788 53.0402C66.4098 54.2009 63.7215 54.2997 61.5758 53.3119C57.5064 51.4104 56.8405 47.2369 55.9773 43.1128V43.0881Z" fill="#FDD998"/>
<path d="M141.731 43.0138C141.213 47.0638 140.103 50.694 136.724 52.7437C134.184 54.2748 131.175 54.2748 128.314 52.7437C130.263 50.3235 132.975 49.0641 135.516 46.4711C131.816 47.1132 129.276 48.422 126.982 51.0644C126.193 48.1998 127.525 46.0266 129.079 44.6189C132.606 41.4333 136.971 41.779 141.731 43.0138Z" fill="#FDD998"/>
<path d="M59.2575 31.8765C57.8271 30.3454 57.4818 28.0487 54.7442 27.6783C55.706 29.5799 56.5446 31.2344 57.3831 32.889C49.8609 33.6546 46.63 29.4811 47.3453 19.9734C53.0178 19.2079 62.5377 24.8137 59.2328 31.8765H59.2575Z" fill="#FDD998"/>
<path d="M112.234 16.8617C112.998 15.4294 113.146 14.0465 112.653 12.4907C110.927 13.2315 111.519 15.2566 110.433 16.4913C107.696 14.6145 108.214 11.6017 108.929 9.57665C110.335 5.62542 113.985 3.50163 117.512 1.6001C120.323 4.85987 120.742 9.45318 118.72 13.2809C117.413 15.7258 115.687 17.5779 112.258 16.8617H112.234Z" fill="#FDD998"/>
<path d="M84.0193 36.667C83.7233 35.21 84.2412 33.7036 82.8848 32.6417C80.7637 33.506 83.2054 36.0249 81.5283 37.1115C74.7706 34.0246 74.5487 26.5913 79.6539 20.541C83.1314 23.9737 87.3488 26.7642 86.7322 32.6417C86.5349 34.5432 86.017 35.9508 84.0193 36.667Z" fill="#FDD998"/>
<path d="M150.264 19.8003C151.522 28.5424 147.132 33.926 140.35 32.8641C140.695 30.518 143.013 29.1598 143.581 26.6162C140.942 27.5546 140.177 30.0735 138.327 31.4317C135.466 25.0604 142.495 20.0719 150.264 19.8003Z" fill="#FDD998"/>
<path d="M118.029 19.825C120.471 24.1467 122.518 27.5793 120.94 31.8022C120.003 34.2717 118.646 36.519 115.465 36.7906C114.922 34.6421 115.465 32.5183 115.834 30.0241C113.27 31.8516 114.108 34.5187 113.097 36.4449C109.817 33.4568 109.471 30.4439 112.135 26.9372C112.85 25.9988 113.565 25.0604 114.305 24.1467C115.366 22.8625 116.451 21.6277 118.005 19.8003L118.029 19.825Z" fill="#FDD998"/>
<path d="M71.367 66.1782C71.6383 68.3514 71.6137 70.2035 70.7751 71.9569C65.5959 71.9569 64.2887 65.6843 66.5084 60.9428C70.7505 53.5095 66.0892 55.4605 72.7728 60.4736C75.6091 62.5974 77.4095 68.1291 72.7975 71.537C72.2796 69.9565 73.0935 67.8821 71.367 66.1535V66.1782Z" fill="#FDD998"/>
<path d="M126.415 71.9813C126.514 69.9563 126.218 68.3264 126.982 65.8322C124.516 67.5855 125.231 70.1044 125.058 71.8825C123.011 71.759 121.951 70.3514 121.68 67.9066C121.285 64.3257 123.653 60.4733 128.536 57.1147C134.036 64.9925 133.247 71.1416 126.415 71.9813Z" fill="#FDD998"/>
<path d="M85.4497 13.7991C84.4878 15.2809 85.1044 16.2687 85.4497 17.3799C83.156 18.3431 81.6269 17.0836 80.3691 15.6019C77.1629 11.7741 78.3961 7.7735 80.1718 3.82227C85.647 4.63721 92.2074 10.6381 87.4967 16.9107C86.8555 15.9476 86.2389 15.0339 85.4497 13.7991Z" fill="#FDD998"/>
<path d="M131.668 6.09424C134.258 12.6138 131.964 17.6022 125.774 19.1827C124.541 18.1702 127.451 14.9598 126.637 13.8485C125.33 14.7376 124.491 17.6763 123.406 17.9479C119.879 13.2805 125.478 8.98358 131.644 6.11893L131.668 6.09424Z" fill="#FDD998"/>
<path d="M69.3693 33.0616C63.6968 32.6912 60.9592 27.1347 63.0063 20.3188C69.9119 21.6771 73.71 26.1222 71.3917 31.8762C70.2572 30.4933 67.8649 26.7396 67.9142 27.5052C67.9635 28.2213 69.6653 31.407 69.394 33.0616H69.3693Z" fill="#FDD998"/>
<path d="M129.128 28.0487C127.402 29.234 127.278 31.1109 126.168 32.3209C124.639 28.8636 125.009 26.6657 127.624 24.3691C129.029 23.159 130.583 22.0971 132.112 21.0599C132.729 20.6401 133.493 20.4672 134.209 20.1709C136.576 26.6904 134.751 32.074 128.536 33.3088C127.771 31.5307 130.065 30.1478 129.128 28.024V28.0487Z" fill="#FDD998"/>
<path d="M73.9813 19.0596C73.2167 16.4666 72.6248 14.3181 70.2572 12.787C70.1832 15.3553 72.1069 17.0099 72.1562 19.1337C65.7192 18.7139 63.4995 11.9721 65.8918 6.31689C71.9589 8.19373 76.7189 12.787 73.9813 19.0596Z" fill="#FDD998"/>
<path d="M43.9665 45.854C51.2667 47.879 54.8676 49.7065 54.029 55.8062C52.9932 54.5467 52.2286 54.1269 50.6255 53.9787C50.9955 55.3864 51.834 55.658 52.0066 56.8928C50.4529 58.3004 48.5045 57.0409 47.0987 56.1272C44.4104 54.3492 43.054 50.1016 43.9665 45.854Z" fill="#FDD998"/>
<path d="M153.89 45.7549C154.629 53.0153 152.04 56.4232 145.652 56.8677C145.109 56.0528 146.54 54.8674 146.343 53.8796C145.257 54.4723 144.69 55.8799 143.679 55.7564C142.545 50.9656 145.257 47.8046 153.865 45.7549H153.89Z" fill="#FDD998"/>
<path d="M29.7113 44.6191C23.7182 46.7922 19.0076 40.7666 18.9583 35.309C25.3953 34.6175 31.1665 38.1242 30.7472 42.6434C29.884 42.1989 27.171 40.7172 26.3818 41.2605C26.9491 41.4828 29.5634 43.3596 29.7113 44.6191Z" fill="#FDD998"/>
<path d="M168.071 44.6685C168.589 43.088 170.044 42.4706 170.784 41.0877C168.737 40.6185 168.096 42.5941 166.739 43.0386C165.235 38.9145 170.217 35.4572 178.059 35.1855C178.429 41.878 173.546 46.2984 168.071 44.6438V44.6685Z" fill="#FDD998"/>
<path d="M73.1181 198.915C82.6874 194.025 85.0797 177.554 85.4003 168.565C85.8443 155.427 82.9587 142.758 77.3109 130.88C73.0442 121.891 64.9793 117.717 55.7554 115.544C47.3206 113.568 40.5383 112.902 31.9309 113.247C30.895 113.297 28.774 113.47 27.0229 113.47C28.3794 110.235 36.8388 107.049 48.6524 105.74C56.6926 104.851 64.4121 107.395 72.4029 109.197C70.2819 94.3555 70.1339 80.131 79.8511 67.3883C79.7772 74.945 80.2211 83.0697 80.665 88.9472C81.1336 94.7506 81.7995 100.455 83.452 106.061C85.5483 113.198 88.4339 119.964 91.7387 126.632C94.131 131.472 96.2027 136.436 97.6825 141.696C97.8551 142.338 97.7812 142.042 98.4471 143.598C101.851 133.818 104.909 127.077 108.806 119.273C112.752 111.37 114.823 102.826 115.81 93.985C116.599 86.8975 117.586 73.7843 117.29 67.166C121.828 73.5374 124.171 80.2051 125.502 87.5149C126.834 94.8988 125.256 102.11 124.664 109.716C133.074 106.95 140.917 104.974 149.154 105.839C157.244 106.703 164.988 108.629 172.362 113.741C169.255 113.741 166.714 113.791 164.149 113.741C155.517 113.494 146.959 113.815 138.648 116.532C130.09 119.322 123.061 124.311 118.843 132.312C115.465 138.683 113.837 145.82 112.258 152.858C111.025 158.341 110.828 163.922 111.149 169.503C111.592 177.751 115.292 193.112 122.715 197.557C123.11 197.804 123.579 198.075 123.603 199.039C107.104 202.94 90.6042 202.521 73.1675 198.964L73.1181 198.915Z" fill="#FFBC56"/>
<path d="M98.3729 126.385C93.243 118.408 90.0122 110.111 88.2118 101.295C86.5594 93.2192 86.8307 84.9463 86.4854 76.7475C86.0661 66.6966 84.0684 57.0654 77.878 48.6444C73.6359 42.8904 67.9141 39.3343 61.4524 36.3461C71.6629 36.4449 89.7902 42.9644 98.8909 65.042C103.577 53.0401 111.124 43.8041 122.962 38.7416C126.711 37.1364 130.632 35.7041 135.737 36.2967C129.917 38.8157 125.305 41.7791 121.532 45.9032C117.832 49.9532 114.799 54.3983 113.393 59.7572C112.357 63.7084 110.68 70.7466 110.113 76.0561C109.225 82.1064 109.965 99.0226 106.561 109.567C104.687 115.297 102.886 121.421 98.3976 126.385H98.3729Z" fill="#FFBC56"/>
<path d="M98.5949 49.4348C104.03 49.4348 108.435 45.0233 108.435 39.5814C108.435 34.1395 104.03 29.728 98.5949 29.728C93.1602 29.728 88.7544 34.1395 88.7544 39.5814C88.7544 45.0233 93.1602 49.4348 98.5949 49.4348Z" fill="#FFBC56"/>
<path d="M139.634 102.604C145.069 102.604 149.475 98.1923 149.475 92.7504C149.475 87.3085 145.069 82.897 139.634 82.897C134.199 82.897 129.794 87.3085 129.794 92.7504C129.794 98.1923 134.199 102.604 139.634 102.604Z" fill="#FFBC56"/>
<path d="M57.9011 102.604C63.3359 102.604 67.7416 98.1923 67.7416 92.7504C67.7416 87.3085 63.3359 82.897 57.9011 82.897C52.4663 82.897 48.0605 87.3085 48.0605 92.7504C48.0605 98.1923 52.4663 102.604 57.9011 102.604Z" fill="#FFBC56"/>
</svg>
