<svg width="62" height="62" viewBox="0 0 62 62" fill="none" xmlns="http://www.w3.org/2000/svg">
<path fill-rule="evenodd" clip-rule="evenodd" d="M31 16C26.926 16 26.416 16.018 24.8155 16.09C23.2195 16.1635 22.129 16.417 21.175 16.7875C20.1737 17.1638 19.2666 17.754 18.517 18.517C17.754 19.2667 17.1638 20.1738 16.7875 21.175C16.417 22.129 16.1635 23.2195 16.09 24.8155C16.0165 26.416 16 26.926 16 31C16 35.074 16.0165 35.584 16.09 37.1845C16.1635 38.7805 16.417 39.871 16.7875 40.825C17.1639 41.8262 17.7541 42.7333 18.517 43.483C19.2667 44.2459 20.1738 44.8361 21.175 45.2125C22.129 45.583 23.2195 45.8365 24.8155 45.91C26.416 45.982 26.926 46 31 46C35.074 46 35.584 45.982 37.1845 45.91C38.7805 45.8365 39.871 45.583 40.825 45.2125C41.8262 44.8362 42.7333 44.246 43.483 43.483C44.246 42.7333 44.8362 41.8262 45.2125 40.825C45.583 39.871 45.8365 38.7805 45.91 37.1845C45.982 35.584 46 35.074 46 31C46 26.926 45.982 26.416 45.91 24.8155C45.8365 23.2195 45.583 22.129 45.2125 21.175C44.8362 20.1738 44.246 19.2667 43.483 18.517C42.7334 17.754 41.8263 17.1638 40.825 16.7875C39.871 16.417 38.7805 16.1635 37.1845 16.09C35.584 16.018 35.074 16 31 16ZM31 18.703C35.005 18.703 35.479 18.718 37.06 18.79C38.524 18.8575 39.3175 19.1005 39.847 19.306C40.546 19.579 41.047 19.9045 41.572 20.428C42.097 20.953 42.421 21.454 42.694 22.153C42.898 22.6825 43.144 23.476 43.21 24.9385C43.282 26.521 43.297 26.9935 43.297 31C43.297 35.005 43.282 35.479 43.21 37.06C43.1425 38.524 42.898 39.3175 42.694 39.847C42.4535 40.4986 42.0701 41.088 41.572 41.572C41.047 42.097 40.546 42.421 39.847 42.694C39.3175 42.898 38.524 43.144 37.0615 43.21C35.4805 43.282 35.0065 43.297 31 43.297C26.995 43.297 26.5195 43.282 24.94 43.21C23.476 43.1425 22.6825 42.898 22.153 42.694C21.5014 42.4536 20.9119 42.0702 20.428 41.572C19.9298 41.0881 19.5464 40.4986 19.306 39.847C19.1005 39.3175 18.856 38.524 18.79 37.0615C18.718 35.479 18.703 35.0065 18.703 31C18.703 26.995 18.718 26.521 18.79 24.94C18.8575 23.476 19.1005 22.6825 19.306 22.153C19.579 21.454 19.9045 20.953 20.428 20.428C20.953 19.903 21.454 19.579 22.153 19.306C22.6825 19.1005 23.476 18.856 24.9385 18.79C26.521 18.718 26.9935 18.703 31 18.703ZM31 35.9995C29.6741 35.9995 28.4024 35.4728 27.4648 34.5352C26.5272 33.5976 26.0005 32.3259 26.0005 31C26.0005 29.6741 26.5272 28.4024 27.4648 27.4648C28.4024 26.5272 29.6741 26.0005 31 26.0005C32.3259 26.0005 33.5976 26.5272 34.5352 27.4648C35.4728 28.4024 35.9995 29.6741 35.9995 31C35.9995 32.3259 35.4728 33.5976 34.5352 34.5352C33.5976 35.4728 32.3259 35.9995 31 35.9995ZM31 23.2975C29.9885 23.2975 28.9869 23.4967 28.0524 23.8838C27.1179 24.2709 26.2688 24.8383 25.5535 25.5535C24.8383 26.2688 24.2709 27.1179 23.8838 28.0524C23.4967 28.9869 23.2975 29.9885 23.2975 31C23.2975 32.0115 23.4967 33.0131 23.8838 33.9476C24.2709 34.8821 24.8383 35.7312 25.5535 36.4465C26.2688 37.1617 27.1179 37.7291 28.0524 38.1162C28.9869 38.5033 29.9885 38.7025 31 38.7025C33.0428 38.7025 35.002 37.891 36.4465 36.4465C37.891 35.002 38.7025 33.0428 38.7025 31C38.7025 28.9572 37.891 26.998 36.4465 25.5535C35.002 24.109 33.0428 23.2975 31 23.2975ZM40.807 22.993C40.807 23.2294 40.7604 23.4634 40.67 23.6818C40.5795 23.9002 40.4469 24.0986 40.2798 24.2658C40.1126 24.4329 39.9142 24.5655 39.6958 24.656C39.4774 24.7464 39.2434 24.793 39.007 24.793C38.7706 24.793 38.5366 24.7464 38.3182 24.656C38.0998 24.5655 37.9014 24.4329 37.7342 24.2658C37.5671 24.0986 37.4345 23.9002 37.344 23.6818C37.2536 23.4634 37.207 23.2294 37.207 22.993C37.207 22.5156 37.3966 22.0578 37.7342 21.7202C38.0718 21.3826 38.5296 21.193 39.007 21.193C39.4844 21.193 39.9422 21.3826 40.2798 21.7202C40.6174 22.0578 40.807 22.5156 40.807 22.993Z" fill="#FF4C6C"/>
<rect x="0.375" y="0.375" width="61.25" height="61.25" stroke="#7D7D7D" stroke-opacity="0.6" stroke-width="0.75"/>
</svg>
