<svg width="600" height="546" viewBox="0 0 600 546" fill="none" xmlns="http://www.w3.org/2000/svg">
<g clip-path="url(#clip0_422_2297)">
<path d="M578.072 233.729C610.72 370.866 538.82 490.983 461.613 534.997C559.502 463.447 598.971 360.568 578.072 233.729Z" fill="#FDD998"/>
<path d="M455.333 521.663C499.567 489.682 531.89 448.378 551.218 397.318C560.476 372.872 566.974 347.721 568.868 321.324C569.789 307.935 570.818 294.601 569.789 281.267C568.706 267.444 568.544 253.406 564.862 239.854C590.958 339.807 551.922 462.038 450.352 526.812C450.352 526.812 453.438 523.072 455.333 521.717V521.663Z" fill="#FDD998"/>
<path d="M591.391 233.188C611.965 305.875 599.025 426.859 515.376 507.516C550.081 470.819 574.174 428.052 587.385 379.431C600.487 331.135 602.328 282.297 591.391 233.188Z" fill="#FDD998"/>
<path d="M476.123 487.513C493.395 470.06 508.609 451.359 520.79 429.84C535.3 404.201 545.642 377.262 551.814 348.642C554.358 336.771 556.362 324.792 556.741 312.596C556.903 307.338 557.823 302.081 559.015 297.094C559.123 381.49 528.316 451.197 460.693 503.45C460.693 503.45 470.926 492.825 476.069 487.622L476.123 487.513Z" fill="#FFBC56"/>
<path d="M425.23 388.049C415.539 377.533 414.51 374.39 405.089 368.915C419.924 359.917 443.368 369.078 448.349 385.772C450.027 391.464 451.11 391.735 453.384 402.955C454.521 408.647 455.929 407.996 451.002 408.484C415.106 412.062 398.538 408.484 399.675 373.305C408.717 377.642 413.102 388.049 425.23 388.049Z" fill="#FDD998"/>
<path d="M151.543 408.539C153.167 381.816 167.082 358.237 199.404 368.373C194.153 376.016 187.331 381.762 178.776 388.375C190.579 387.616 196.481 379.648 203.952 374.553C206.822 389.676 199.025 399.812 185.436 404.419C174.662 408.105 163.454 409.081 151.597 408.539H151.543Z" fill="#FDD998"/>
<path d="M470.98 251.563C468.868 264.193 465.349 275.521 456.091 283.327C446.562 291.403 435.355 292.487 423.768 285.712C427.612 279.641 433.73 275.63 440.119 269.613C430.374 268.691 425.826 274.925 420.303 279.261C417.704 263.813 427.612 252.81 443.422 250.858C452.139 249.774 461.072 249.883 471.034 251.563H470.98Z" fill="#FDD998"/>
<path d="M186.14 279.37C178.722 273.407 172.388 267.879 161.505 268.258C168.598 274.6 175.961 278.448 180.563 285.17C165.295 295.143 151.164 290.373 141.256 273.407C137.574 267.12 135.95 259.91 133.351 252.43C146.237 249.07 158.96 249.178 171.088 253.623C182.133 257.688 185.165 267.607 186.14 279.316V279.37Z" fill="#FDD998"/>
<path d="M514.889 314.819C506.28 339.157 481.267 354.009 461.072 336.339C468.219 331.731 475.907 328.208 485.057 324.63C474.391 322.354 466.107 326.636 457.12 329.4C464.645 312.218 470.709 308.206 488.035 309.128C497.076 309.616 505.847 311.892 514.835 314.765L514.889 314.819Z" fill="#FDD998"/>
<path d="M90.6336 315.144C102.274 311.187 113.644 308.206 125.663 309.236C136.817 310.157 146.237 319.318 146.779 329.562C137.737 324.846 128.208 322.299 117.65 323.437C126.746 327.231 135.788 331.08 143.963 336.717C120.845 355.147 97.8345 336.88 90.6336 315.198V315.144Z" fill="#FDD998"/>
<path d="M303.79 156.542C306.335 148.249 303.898 138.221 303.14 133.235C299.296 140.769 301.678 149.225 297.401 156.163C290.417 148.195 285.544 139.034 287.331 128.844C289.009 119.25 294.369 111.499 301.191 104.669C303.79 102.121 305.522 103.585 306.497 106.187C309.583 114.372 313.969 122.069 315.485 130.85C317.055 140.119 315.214 151.881 303.736 156.542H303.79Z" fill="#FDD998"/>
<path d="M86.5729 260.777C96.2643 260.886 105.523 259.585 114.564 262.132C122.956 264.463 130.049 268.529 132.485 277.852C133.081 280.237 133.406 282.405 131.835 284.573C125.176 281.592 121.115 274.057 111.803 275.033C118.354 279.911 124.797 283.706 129.453 289.614C110.72 299.804 89.9838 282.784 86.5729 260.777Z" fill="#FDD998"/>
<path d="M492.583 274.491C484.082 274.87 478.397 280.182 472.875 285.711C470.222 280.453 474.012 270.696 480.671 266.523C487.602 262.186 495.181 260.181 503.357 260.614C507.851 260.831 512.29 261.048 516.622 259.422C518.192 266.035 511.749 282.133 505.36 286.036C495.994 291.728 483.054 296.443 475.528 289.18C479.805 282.513 487.926 280.453 493.124 274.924C494.153 275.25 494.64 274.653 495.56 271.889C494.153 273.949 492.908 272.81 492.637 274.545L492.583 274.491Z" fill="#FDD998"/>
<path d="M385.219 271.619C380.672 266.198 379.859 258.23 383.324 252.376C389.064 242.674 398.43 238.283 408.121 234.001C417.921 254.707 411.803 269.396 391.933 274.383C391.319 271.492 392.186 266.451 394.532 259.26C387.927 262.241 387.548 268.367 385.219 271.565V271.619Z" fill="#FDD998"/>
<path d="M212.94 274.924C204.927 273.082 198.43 269.558 195.073 262.241C191.392 254.273 193.557 246.034 194.532 237.578C195.398 230.314 194.532 233.783 200.054 235.03C208.284 236.873 215.16 242.565 220.303 250.153C225.555 257.904 223.714 264.68 219.87 273.353C218.029 267.227 215.16 263.162 212.02 258.013C209.313 264.246 214.618 268.799 212.94 274.924Z" fill="#FDD998"/>
<path d="M469.41 240.993C473.308 233.892 480.617 232.537 485.219 225.761C476.719 227.062 471.197 230.802 466.216 236.114C464.375 218.389 480.401 210.638 504.386 215.246C502.653 224.84 500 233.892 491.608 239.963C484.786 244.895 477.531 243.486 469.41 240.938V240.993Z" fill="#FDD998"/>
<path d="M426.475 239.095C430.265 234.054 433.027 231.398 437.954 228.363C431.186 225.761 428.587 231.886 423.768 233.296C422.307 226.357 425.447 221.154 430.644 217.847C439.361 212.318 448.998 213.24 459.285 215.625C456.578 226.412 454.9 236.765 443.422 241.589C437.629 244.028 432.864 243.757 426.53 239.041L426.475 239.095Z" fill="#FDD998"/>
<path d="M181.863 233.892C176.394 229.501 170.764 226.032 163.346 225.978C168.435 230.26 173.525 234.488 178.722 238.824C162.913 248.635 153.817 242.565 145.425 216.33C154.683 212.102 164.267 213.186 172.983 216.492C179.805 219.094 181.05 226.791 181.917 233.838L181.863 233.892Z" fill="#FDD998"/>
<path d="M134.705 240.396C127.667 244.732 117.271 244.028 111.37 238.391C105.089 232.482 102.166 224.785 101.462 215.787C109.421 213.728 138.062 209.662 137.683 234.271C131.565 230.368 126.313 224.894 117.217 225.11C123.714 230.639 130.969 233.621 134.759 240.396H134.705Z" fill="#FDD998"/>
<path d="M457.932 365.771C464.7 362.464 470.926 362.031 476.34 366.15C484.516 372.33 487.602 380.894 486.086 391.084C465.458 394.065 453.709 389.024 454.575 371.516C459.556 371.462 464.158 379.376 470.493 378.617C467.136 374.606 462.805 369.023 457.932 365.825V365.771Z" fill="#FDD998"/>
<path d="M145.966 366.747C144.613 371.409 139.632 372.981 136.654 377.48C144.234 376.558 145.533 372.384 149.973 370.271C151.381 381.816 147.374 388.158 136.6 390.706C132.539 391.681 129.507 391.519 124.418 391.844C114.239 392.711 115.485 391.085 117.813 384.364C120.141 377.642 121.603 370.433 128.37 366.097C134.218 362.357 139.848 362.357 145.966 366.747Z" fill="#FDD998"/>
<path d="M416.784 193.347C419.112 187.927 426.15 188.252 428.045 182.669C421.548 180.447 418.733 187.168 413.752 188.144C413.59 173.671 426.151 167.492 448.998 170.202C448.89 186.734 435.896 200.827 416.784 193.293V193.347Z" fill="#FDD998"/>
<path d="M189.388 189.119C185.003 185.162 181.863 179.362 174.174 179.688C177.964 184.783 183.054 187.818 185.923 193.239C179.589 196.708 173.741 195.353 168.165 191.613C159.285 185.65 156.795 176.815 156.903 166.787C172.117 165.161 193.232 171.449 189.334 189.119H189.388Z" fill="#FDD998"/>
<path d="M421.927 322.246C418.95 305.767 438.982 300.347 455.766 304.033C455.333 322.842 438.062 335.363 424.635 326.528C428.154 321.487 433.947 319.048 438.766 313.952C431.619 314.765 427.288 318.939 421.927 322.246Z" fill="#FDD998"/>
<path d="M149.215 303.653C155.441 303.653 161.667 303.328 167.894 303.707C177.639 304.304 183.811 311.892 183.108 321.92C179.209 320.185 176.123 316.5 170.926 316.337C172.712 321.107 178.235 322.137 179.426 326.69C164.483 336.176 149.702 319.86 149.215 303.653Z" fill="#FDD998"/>
<path d="M208.5 197.738C229.724 191.775 241.364 200.123 240.336 213.565C236.762 212.102 234.109 209.283 229.345 209.663C232.918 213.186 236.275 214.216 236.383 219.582C231.402 222.129 225.501 222.346 220.79 220.178C211.857 216.004 210.395 206.844 208.5 197.792V197.738Z" fill="#FDD998"/>
<path d="M396.752 197.575C395.615 206.464 393.178 214.433 385.761 218.931C380.184 222.292 373.579 222.292 367.298 218.931C371.576 213.619 377.531 210.855 383.108 205.164C374.987 206.573 369.41 209.446 364.375 215.246C362.642 208.958 365.566 204.188 368.977 201.098C376.719 194.106 386.302 194.865 396.752 197.575Z" fill="#FDD998"/>
<path d="M215.701 173.129C212.561 169.768 211.803 164.727 205.793 163.914C207.905 168.088 209.746 171.72 211.586 175.351C195.073 177.032 187.981 167.871 189.551 147.002C202.003 145.322 222.902 157.627 215.647 173.129H215.701Z" fill="#FDD998"/>
<path d="M331.998 140.173C333.676 137.029 334.001 133.994 332.918 130.579C329.128 132.205 330.428 136.65 328.046 139.36C322.036 135.24 323.173 128.628 324.743 124.183C327.829 115.51 335.842 110.849 343.584 106.675C349.756 113.83 350.677 123.912 346.237 132.313C343.368 137.68 339.578 141.745 332.052 140.173H331.998Z" fill="#FDD998"/>
<path d="M270.06 183.644C269.41 180.446 270.547 177.14 267.569 174.809C262.913 176.706 268.273 182.235 264.591 184.62C249.756 177.845 249.269 161.529 260.476 148.249C268.11 155.783 277.369 161.909 276.015 174.809C275.582 178.983 274.445 182.073 270.06 183.644Z" fill="#FDD998"/>
<path d="M415.485 146.623C418.246 165.811 408.609 177.628 393.72 175.297C394.478 170.148 399.567 167.166 400.812 161.583C395.019 163.643 393.341 169.172 389.28 172.153C383 158.169 398.43 147.219 415.485 146.623Z" fill="#FDD998"/>
<path d="M344.721 146.677C350.081 156.163 354.575 163.697 351.11 172.966C349.053 178.387 346.075 183.319 339.091 183.916C337.899 179.2 339.091 174.538 339.903 169.064C334.272 173.075 336.113 178.929 333.893 183.157C326.692 176.598 325.934 169.985 331.781 162.288C333.352 160.228 334.922 158.169 336.546 156.163C338.874 153.344 341.256 150.634 344.667 146.623L344.721 146.677Z" fill="#FDD998"/>
<path d="M242.285 248.419C242.88 253.189 242.826 257.254 240.985 261.102C229.616 261.102 226.746 247.335 231.619 236.927C240.931 220.612 230.698 224.894 245.371 235.897C251.597 240.559 255.55 252.701 245.425 260.181C244.288 256.712 246.075 252.159 242.285 248.364V248.419Z" fill="#FDD998"/>
<path d="M363.129 261.156C363.346 256.712 362.696 253.134 364.375 247.66C358.96 251.508 360.531 257.037 360.152 260.94C355.658 260.669 353.33 257.579 352.734 252.213C351.868 244.353 357.065 235.897 367.786 228.525C379.859 245.817 378.127 259.313 363.129 261.156Z" fill="#FDD998"/>
<path d="M273.2 133.451C271.088 136.704 272.442 138.872 273.2 141.311C268.165 143.425 264.808 140.66 262.047 137.408C255.008 129.007 257.715 120.225 261.613 111.553C273.633 113.341 288.035 126.513 277.694 140.281C276.286 138.167 274.932 136.161 273.2 133.451Z" fill="#FDD998"/>
<path d="M374.662 116.54C380.347 130.85 375.311 141.799 361.722 145.268C359.015 143.046 365.403 135.999 363.617 133.56C360.747 135.512 358.906 141.962 356.524 142.558C348.782 132.313 361.072 122.882 374.608 116.594L374.662 116.54Z" fill="#FDD998"/>
<path d="M237.899 175.731C225.447 174.918 219.437 162.722 223.931 147.762C239.09 150.743 247.428 160.5 242.339 173.129C239.848 170.094 234.597 161.855 234.705 163.535C234.813 165.107 238.549 172.099 237.953 175.731H237.899Z" fill="#FDD998"/>
<path d="M369.085 164.728C365.295 167.329 365.024 171.449 362.588 174.105C359.231 166.516 360.043 161.692 365.782 156.651C368.869 153.995 372.279 151.664 375.636 149.388C376.99 148.466 378.668 148.087 380.238 147.437C385.436 161.746 381.429 173.563 367.786 176.273C366.107 172.371 371.142 169.335 369.085 164.673V164.728Z" fill="#FDD998"/>
<path d="M248.024 144.997C246.345 139.305 245.046 134.59 239.848 131.229C239.686 136.866 243.909 140.498 244.017 145.159C229.886 144.238 225.013 129.44 230.265 117.027C243.584 121.147 254.034 131.229 248.024 144.997Z" fill="#FDD998"/>
<path d="M182.133 203.809C198.159 208.253 206.064 212.264 204.223 225.653C201.949 222.889 200.271 221.967 196.752 221.642C197.564 224.731 199.405 225.328 199.784 228.038C196.373 231.128 192.096 228.363 189.009 226.358C183.108 222.455 180.13 213.132 182.133 203.809Z" fill="#FDD998"/>
<path d="M423.443 203.592C425.068 219.528 419.383 227.008 405.36 227.984C404.169 226.195 407.309 223.593 406.876 221.425C404.494 222.726 403.249 225.816 401.029 225.545C398.538 215.029 404.494 208.091 423.389 203.592H423.443Z" fill="#FDD998"/>
<path d="M150.839 201.098C137.683 205.868 127.342 192.642 127.233 180.663C141.364 179.146 154.034 186.843 153.113 196.762C151.218 195.786 145.263 192.534 143.53 193.726C144.775 194.214 150.514 198.334 150.839 201.098Z" fill="#FDD998"/>
<path d="M454.575 201.207C455.712 197.738 458.906 196.383 460.531 193.347C456.037 192.318 454.629 196.654 451.651 197.63C448.349 188.577 459.285 180.989 476.503 180.393C477.315 195.082 466.595 204.785 454.575 201.153V201.207Z" fill="#FDD998"/>
<path d="M15.5927 206.952C-1.462 264.571 -2.70726 320.673 12.2359 377.099C27.1249 433.309 56.8488 480.575 98.4297 520.795C17.1628 450.221 -24.8513 327.34 15.5927 206.952Z" fill="#FDD998"/>
<path d="M24.5806 368.048C44.7213 443.283 87.6558 501.553 152.572 543.832C130.428 531.365 110.829 515.7 93.2324 497.542C75.6905 479.492 60.8015 459.382 48.9444 437.158C33.0267 407.454 20.5741 372.98 24.6347 368.048H24.5806Z" fill="#FDD998"/>
<path d="M175.907 541.339C125.934 516.947 87.6016 480.034 60.639 431.521C50.1355 412.658 41.2021 392.927 38.6033 370.975C50.0813 406.912 66.9195 439.922 90.4712 469.355C114.185 499.005 142.664 523.072 175.907 541.339Z" fill="#FDD998"/>
<path d="M143.801 505.835C72.6584 455.968 35.8961 368.482 41.6892 297.312C42.2848 337.64 51.7055 375.745 69.3557 411.845C87.3308 448.542 112.507 479.546 143.747 505.835H143.801Z" fill="#FFBC56"/>
<path d="M22.2524 363.441C11.3157 319.047 12.0737 274.708 23.5518 230.478C13.1566 274.708 13.8604 319.047 22.2524 363.441Z" fill="#FDD998"/>
<path d="M29.8324 271.727C27.9916 303.328 30.807 334.604 36.4919 365.717C27.3419 334.875 26.3673 303.436 29.8324 271.727Z" fill="#FDD998"/>
<path d="M96.1559 100.007C211.316 -17.1284 388.035 -8.45568 490.742 87.8654C432.16 39.5151 366.865 14.1475 291.012 17.2372C215.376 20.2726 150.893 48.242 96.2101 100.007H96.1559Z" fill="#FDD998"/>
<path d="M150.081 41.304C155.875 35.6126 163.509 33.0108 170.547 29.4875C202.816 13.5514 237.033 4.33667 272.767 1.08441C290.092 -0.487512 307.526 -0.270695 325.014 1.19282C344.613 2.87316 363.563 6.88427 382.512 11.4374C411.207 18.3214 436.871 31.9809 461.83 47.2123C465.512 49.4347 468.869 52.1449 472.225 54.9093C461.83 47.7543 450.785 41.6834 439.632 35.7752C428.37 29.8127 416.73 24.6633 404.656 20.4354C383.108 12.8467 361.18 7.48052 338.333 5.31235C323.389 3.90304 308.555 1.08441 293.449 1.84327C248.024 4.06565 204.494 13.6598 163.725 34.4743C159.177 36.8051 154.575 39.0274 149.973 41.304H150.027H150.081Z" fill="#FDD998"/>
<path d="M123.01 94.858C130.211 86.2395 139.307 79.7892 148.403 73.5557C184.299 48.7843 224.31 34.366 267.407 29.054C278.073 27.7531 288.901 26.94 300 27.8615C310.504 28.7288 321.494 28.0783 332.106 28.8914C347.212 30.0297 362.426 32.6315 376.665 38.1061C386.952 42.063 397.726 44.3396 407.742 49.218C424.797 57.5112 441.744 65.8045 456.741 77.6752C456.741 77.6752 444.126 70.5745 437.845 66.997C421.765 57.9449 404.981 50.6815 387.656 44.3938C370.493 38.1603 352.68 35.0165 334.813 32.5231C320.358 30.5175 305.685 29.9212 291.013 30.5717C234.597 33.1735 183.162 50.2479 137.25 83.4751C132.269 87.0526 127.288 90.5759 122.902 94.9122H123.01V94.858Z" fill="#FDD998"/>
<path d="M172.713 75.1814C249.594 24.4462 372.55 27.5901 450.19 89.5998C408.663 62.2266 363.184 46.5616 313.427 44.014C263.725 41.4664 216.838 52.1446 172.713 75.2356V75.1814Z" fill="#FFBC56"/>
<path d="M152.301 40.166C139.145 48.5134 124.635 57.4029 112.886 66.8345C101.191 76.1576 90.4711 86.4022 80.5631 96.6468C93.0699 80.765 126.367 53.0666 144.342 43.4182C146.237 42.3883 149.432 40.2744 157.986 35.5586C157.174 37.0763 152.301 40.166 152.301 40.166Z" fill="#FDD998"/>
<path d="M122.902 94.8037C122.307 95.0747 121.657 95.4 121.061 95.671C121.711 95.4 122.361 95.0747 123.01 94.8037H122.902Z" fill="#F6A120"/>
<path d="M246.129 539.767C267.136 529.034 272.388 492.88 273.091 473.15C274.066 444.313 267.731 416.506 255.333 390.434C245.966 370.704 228.262 361.543 208.013 356.773C189.496 352.437 174.607 350.973 155.712 351.732C153.438 351.841 148.782 352.22 144.938 352.22C147.915 345.119 166.486 338.127 192.42 335.254C210.07 333.303 227.017 338.886 244.559 342.843C239.902 310.266 239.578 279.044 260.91 251.075C260.747 267.661 261.722 285.494 262.696 298.395C263.725 311.133 265.187 323.654 268.814 335.959C273.416 351.624 279.751 366.476 287.006 381.111C292.258 391.735 296.806 402.63 300.054 414.176C300.433 415.585 300.271 414.934 301.732 418.349C309.204 396.884 315.918 382.087 324.472 364.958C333.135 347.613 337.683 328.858 339.848 309.453C341.581 293.896 343.747 265.114 343.097 250.587C353.059 264.572 358.202 279.207 361.126 295.251C364.05 311.458 360.585 327.286 359.285 343.981C377.748 337.91 394.965 333.574 413.048 335.471C430.807 337.368 447.807 341.596 463.996 352.816C457.174 352.816 451.597 352.925 445.966 352.816C427.017 352.274 408.229 352.979 389.984 358.941C371.196 365.066 355.766 376.016 346.508 393.578C339.09 407.563 335.517 423.228 332.052 438.676C329.345 450.709 328.912 462.959 329.616 475.21C330.59 493.314 338.711 527.029 355.008 536.786C355.874 537.328 356.903 537.924 356.957 540.038C320.736 548.602 284.515 547.681 246.237 539.875L246.129 539.767Z" fill="#FFBC56"/>
<path d="M301.57 380.568C290.308 363.06 283.216 344.848 279.263 325.497C275.636 307.772 276.232 289.614 275.474 271.618C274.553 249.557 270.168 228.417 256.578 209.933C247.266 197.304 234.705 189.498 220.52 182.939C242.934 183.156 282.729 197.466 302.707 245.925C312.994 219.582 329.561 199.309 355.549 188.197C363.779 184.674 372.387 181.53 383.595 182.831C370.817 188.36 360.693 194.864 352.409 203.917C344.288 212.806 337.628 222.563 334.542 234.325C332.268 242.998 328.587 258.446 327.341 270.1C325.392 283.38 327.017 320.51 319.545 343.655C315.43 356.231 311.478 369.673 301.624 380.568H301.57Z" fill="#FFBC56"/>
<path d="M302.057 211.668C313.988 211.668 323.66 201.985 323.66 190.041C323.66 178.096 313.988 168.413 302.057 168.413C290.126 168.413 280.455 178.096 280.455 190.041C280.455 201.985 290.126 211.668 302.057 211.668Z" fill="#FFBC56"/>
<path d="M392.149 328.37C404.08 328.37 413.752 318.687 413.752 306.743C413.752 294.798 404.08 285.115 392.149 285.115C380.219 285.115 370.547 294.798 370.547 306.743C370.547 318.687 380.219 328.37 392.149 328.37Z" fill="#FFBC56"/>
<path d="M212.723 328.37C224.654 328.37 234.326 318.687 234.326 306.743C234.326 294.798 224.654 285.115 212.723 285.115C200.793 285.115 191.121 294.798 191.121 306.743C191.121 318.687 200.793 328.37 212.723 328.37Z" fill="#FFBC56"/>
</g>
<defs>
<clipPath id="clip0_422_2297">
<rect width="600" height="546" fill="white"/>
</clipPath>
</defs>
</svg>
