<?xml version="1.0" encoding="utf-8"?>
<!-- Generator: Adobe Illustrator 28.0.0, SVG Export Plug-In . SVG Version: 6.00 Build 0)  -->
<svg version="1.1" id="Calque_1" xmlns="http://www.w3.org/2000/svg" xmlns:xlink="http://www.w3.org/1999/xlink" x="0px" y="0px"
	 viewBox="0 0 2026.8 2026.8" style="enable-background:new 0 0 2026.8 2026.8;" xml:space="preserve">
<style type="text/css">
	.st0{fill:none;stroke:#A0A0A0;stroke-width:2;stroke-miterlimit:10;}
	.st1{fill:none;stroke:#A0A0A0;stroke-width:2;stroke-linejoin:round;stroke-miterlimit:10;}
</style>
<g id="Pattern">
	<g>
		<path class="st0" d="M227.4,1799.4L98.7,1928.2l96.2,96.2h495.5v-365.5c-1.5,0-2.9,0-4.4-0.1"/>
		<polygon class="st0" points="389.4,1013.4 324.9,1013.4 303.7,1013.4 2.4,1013.4 2.4,1335.9 2.4,1335.9 66.9,1335.9 		"/>
		<path class="st0" d="M1012.9,1831.9c0.2,0,0.3,0,0.5,0v-209.5l-323,323v79h129.5C820.2,1918.1,906.5,1831.9,1012.9,1831.9z"/>
		<path class="st0" d="M673,1013.4H389.4L66.9,1335.9h301C367.9,1163.5,503,1022.7,673,1013.4L673,1013.4z"/>
		<path class="st0" d="M690.4,1658.9v0.5l0.5-0.5C690.7,1658.9,690.6,1658.9,690.4,1658.9z"/>
		<path class="st0" d="M1518.9,1518.9l-3.4-3.4c-50.3,50.5-108.2,93.4-171.8,126.9c107.2,92.5,175.1,229.3,175.2,382h183v-322.5
			L1518.9,1518.9z"/>
		<path class="st0" d="M1701.9,1518.9h130c0-106.4,86.1-192.7,192.5-193v-312.5l-322.5,322.5V1518.9z"/>
		<polygon class="st0" points="1515.5,1515.5 1701.9,1701.9 1701.9,1518.9 1701.9,1335.9 		"/>
		<polygon class="st0" points="1701.9,2024.4 2024.4,2024.4 1701.9,1701.9 		"/>
		<path class="st0" d="M1701.9,1518.9v183l322.5,322.5v-312.5c-106.4-0.3-192.5-86.6-192.5-193"/>
		<path class="st0" d="M2024.4,1711.9c0.2,0,0.3,0,0.5,0v-193h-0.5V1711.9z"/>
		<path class="st0" d="M2024.4,1325.9v193h0.5v-193C2024.7,1325.9,2024.6,1325.9,2024.4,1325.9z"/>
		<path class="st0" d="M1831.9,1518.9c0,106.4,86.1,192.7,192.5,193v-193H1831.9z"/>
		<path class="st0" d="M1831.9,1518.9h192.5v-193C1918.1,1326.2,1831.9,1412.5,1831.9,1518.9z"/>
		<path class="st0" d="M1343.7,1642.4c-98.7,52-211,81.5-330.3,81.5h0v108c106.2,0.3,192.2,86.3,192.5,192.5h313
			C1518.8,1871.7,1450.9,1735,1343.7,1642.4z"/>
		<path class="st0" d="M1013.4,1831.9c-0.2,0-0.3,0-0.5,0c-106.4,0-192.7,86.1-193,192.5h193.5V1831.9z"/>
		<path class="st0" d="M1013.4,1831.9v192.5h192.5C1205.6,1918.2,1119.6,1832.2,1013.4,1831.9L1013.4,1831.9z"/>
		<path class="st0" d="M1013.4,1519.9v-166.1c-0.1,2.3-0.3,4.6-0.4,6.8L1013.4,1519.9z"/>
		<path class="st0" d="M1013.9,1335.9L1013.9,1335.9c0,6-0.2,12-0.5,17.9v166.1h0.5c126,0,241.3,46.2,329.8,122.5
			c63.6-33.5,121.5-76.4,171.8-126.9l-274.2-274.2C1183.1,1299.5,1102.7,1335.6,1013.9,1335.9L1013.9,1335.9z"/>
		<path class="st0" d="M1241.3,1241.3l274.2,274.2c128.3-128.6,207.6-306.1,207.6-502.1h-387.3
			C1335.8,1102.4,1299.7,1183,1241.3,1241.3z"/>
		<path class="st0" d="M1013.4,1013.4V1318c-8.9-162.8-138.4-293.6-300.7-304.4c-1.3-0.1-2.6-0.2-3.9-0.2H1013.4z"/>
		<path class="st0" d="M1241.3,1241.3c58.3-58.3,94.5-138.9,94.6-227.9h-322.5L1241.3,1241.3z"/>
		<path class="st0" d="M1241.3,1241.3c-58.2,58.2-138.6,94.3-227.4,94.6c0-6-0.2-12-0.5-17.9v-304.6L1241.3,1241.3z"/>
		<path class="st0" d="M1013.4,1519.9v102.5l0.5-0.5l-0.5,0.5v101.5h0c119.2,0,231.6-29.4,330.3-81.5
			c-88.5-76.4-203.7-122.5-329.8-122.5H1013.4L1013.4,1519.9z"/>
		<polygon class="st0" points="2.4,1831.9 2.4,2024.4 98.7,1928.2 		"/>
		<polygon class="st0" points="2.4,2024.4 194.9,2024.4 98.7,1928.2 		"/>
		<polygon class="st0" points="1013,1360.6 1012.9,1336.9 690.9,1658.9 690.4,1659.4 690.4,1945.4 1013.4,1622.4 1013.4,1519.9 		
			"/>
		<path class="st0" d="M690.4,1013.4v169.5c-84.3,0.3-152.5,68.7-152.5,153h-170c0-172.4,135.1-313.2,305.1-322.5H690.4z"/>
		<path class="st0" d="M1013.4,1335.9L1013.4,1335.9l-0.5,0C1013.1,1335.9,1013.2,1335.9,1013.4,1335.9z"/>
		<path class="st0" d="M1012.9,1336.9l0.1,23.7c0.2-2.3,0.3-4.6,0.4-6.8v-17.4L1012.9,1336.9z"/>
		<polygon class="st0" points="1013.4,1335.9 1012.9,1335.9 1012.9,1336.9 1013.4,1336.4 		"/>
		<polygon class="st0" points="1013.4,1336.4 1013.9,1335.9 1013.4,1335.9 		"/>
		<path class="st0" d="M1013.4,1353.8c0.3-5.9,0.5-11.9,0.5-17.9l-0.5,0.5V1353.8z"/>
		<path class="st0" d="M1013.4,1335.9h0.5C1013.7,1335.9,1013.6,1335.9,1013.4,1335.9L1013.4,1335.9z"/>
		<path class="st0" d="M690.4,1013.4c0,0.3,0,0.7,0,1L690.4,1013.4L690.4,1013.4z"/>
		<path class="st0" d="M1013.9,1335.9h-0.2c-0.1,0-0.2,0-0.3,0V1318C1013.7,1323.9,1013.9,1329.9,1013.9,1335.9z"/>
		<path class="st0" d="M690.4,1182.9c-84.3,0.3-152.5,68.7-152.5,153h152.5V1182.9z"/>
		<polygon class="st0" points="690.9,1335.9 690.4,1335.9 690.4,1336.4 		"/>
		<path class="st0" d="M1012.9,1335.9v1l-322,322c-0.2,0-0.3,0-0.5,0v-322.5l0.5-0.5H1012.9z"/>
		<path class="st0" d="M843.9,1335.9H690.4v-153c0.2,0,0.3,0,0.5,0C775.4,1182.9,843.9,1251.4,843.9,1335.9z"/>
		<path class="st0" d="M225.7,1801.1l47.4-80.9l47.4-80.9l33.4,33.4h0l109.5-109.5c-58.1-58.1-94.4-138-95.8-226.4
			c-126.9,24.3-222.9,136-222.9,270c0,75.9,30.8,144.7,80.5,194.4L225.7,1801.1L225.7,1801.1L225.7,1801.1z"/>
		<path class="st0" d="M354,1672.8l33.4,33.4l-80.9,47.4l-80.8,47.4l-0.3,0.3c49.8,49.8,118.5,80.5,194.4,80.5
			c134.1,0,245.7-95.9,270-222.9c-88.4-1.3-168.2-37.6-226.4-95.8L354,1672.8L354,1672.8z"/>
		<path class="st0" d="M686,1658.8c1.5,0,2.9,0.1,4.4,0.1v-170c-9.6,0-18.9-0.9-28-2.7c-30.8-5.8-58.4-20.8-79.7-42.2l-120.2,120.2"
			/>
		<path class="st0" d="M368,1340.8c0-1.6-0.1-3.3-0.1-4.9h170c0,9.7,0.9,19.3,2.7,28.5c0.4,1.9,0.8,3.8,1.2,5.7
			c3.9,17.1,10.7,33.1,19.8,47.5c6.1,9.6,13.2,18.5,21.2,26.5l-119.2,119.2v0l-1,1"/>
		<path class="st0" d="M537.9,1335.9c0,9.7,0.9,19.3,2.7,28.5c5.8,30.8,20.8,58.4,42.2,79.7l28.7-28.7l79-79v-0.5L537.9,1335.9
			L537.9,1335.9z"/>
		<path class="st0" d="M611.4,1415.4l-28.7,28.7c21.3,21.3,48.9,36.3,79.7,42.2c9.1,1.7,18.4,2.6,28,2.7v-152.5L611.4,1415.4
			L611.4,1415.4z"/>
		<polygon class="st0" points="306.7,1753.5 387.4,1706.2 354,1672.8 225.9,1800.9 		"/>
	</g>
	<g>
		<path class="st1" d="M475.9,587.7c-26.8,21.7-59.2,36.8-94.7,42.8l309.2,382.9L541.3,587.6L475.9,587.7L475.9,587.7z"/>
		<path class="st0" d="M346.4,221.4c25,0,48.9,4.4,71.1,12.6L336.4,2.4H2.4v159l152.8,189.2C185.7,274.9,259.8,221.4,346.4,221.4z"
			/>
		<path class="st1" d="M657.4,587.7L657.4,587.7l-116.1,0l149.1,425.8V587.6L657.4,587.7L657.4,587.7z"/>
		<polygon class="st1" points="2.4,1013.4 690.4,1013.4 2.4,711.4 		"/>
		<path class="st0" d="M552.4,427.4c0,20.5-3,40.2-8.5,58.9c3.8-0.4,7.7-0.7,11.5-0.7c56,0,102,46,102,102l0,0
			c0-29.5,12.8-56.2,33-74.8V2.4h-354L417.5,234C496.2,263,552.4,338.6,552.4,427.4L552.4,427.4z"/>
		<path class="st0" d="M715.9,1013.4h297.5v-322C1013.4,861.2,882.4,1000.4,715.9,1013.4z"/>
		<path class="st0" d="M1864.9,1013.4h159.5l-46.7-46.7C1948.8,995.6,1909,1013.4,1864.9,1013.4L1864.9,1013.4z"/>
		<path class="st0" d="M2024.4,1013.4V853.9c0,44-17.8,83.9-46.7,112.8L2024.4,1013.4L2024.4,1013.4z"/>
		<path class="st0" d="M1872.2,255c51.1,71.2,81.2,158.6,81.2,252.9c0,69.1-16.2,134.5-44.9,192.5c66.9,19,115.9,80.5,115.9,153.5
			V156.4C2024.4,156.4,1889.5,161.7,1872.2,255L1872.2,255z"/>
		<path class="st0" d="M1870.4,156.4h154V2.4L1870.4,156.4z"/>
		<path class="st0" d="M1114.3,103.3L1013.4,2.4v344.5C1013.4,251.8,1052,165.7,1114.3,103.3L1114.3,103.3z"/>
		<path class="st0" d="M1711.4,897.5c-58,28.7-123.4,44.9-192.5,44.9c-120,0-228.6-48.6-307.2-127.3l-198.3,198.3h851.5
			C1791.9,1013.4,1730.4,964.4,1711.4,897.5z"/>
		<polygon class="st1" points="381.2,630.5 155.2,350.6 2.4,161.4 2.4,711.4 690.4,1013.4 		"/>
		<path class="st0" d="M417.5,234c-22.2-8.1-46.1-12.6-71.1-12.6c-86.6,0-160.8,53.5-191.2,129.2l226,279.8
			c35.5-6,67.9-21.1,94.7-42.8l-22.5,0v0c0-39.5,22.9-74,56.1-90.9c10.6-5.4,22.2-9,34.4-10.4c5.5-18.6,8.5-38.4,8.5-58.9
			C552.4,338.6,496.2,263,417.5,234L417.5,234z"/>
		<path class="st0" d="M555.4,485.6c-3.9,0-7.8,0.2-11.5,0.7c-12.2,1.4-23.8,5-34.4,10.4c-33.1,16.9-56.1,51.5-56.1,90.9v0h22.5
			l65.5,0h116.1C657.4,531.7,611.4,485.6,555.4,485.6L555.4,485.6z"/>
		<path class="st0" d="M657.4,587.6L657.4,587.6L657.4,587.6l33,0v-74.9C670.2,531.4,657.4,558.1,657.4,587.6L657.4,587.6z"/>
		<path class="st0" d="M1228.6,666.3c-55.8-22.6-104.2-59.4-141-105.8c-46.4-58.7-74.2-132.9-74.2-213.5v344.5l0,0v322l198.3-198.3
			l73.4-73.4C1262.8,719.5,1243.8,694.1,1228.6,666.3z"/>
		<path class="st0" d="M1748,745.4c-59.4,57.6-140.4,93-229.6,93s-173.6-36.9-233.3-96.7l-73.4,73.4
			c78.6,78.6,187.3,127.3,307.2,127.3c69.1,0,134.5-16.2,192.5-44.9c-3.9-13.9-6-28.5-6-43.6C1705.4,812,1721.6,773.9,1748,745.4z"
			/>
		<path class="st0" d="M1819.4,373c18.6,41.3,29,87.1,29,135.4c0,88.9-35.1,169.5-92.3,228.9c28.5-26.6,66.7-42.9,108.8-42.9
			c15.1,0,29.8,2.1,43.6,6c28.7-58,44.9-123.4,44.9-192.5c0-94.4-30.1-181.7-81.2-252.9c-1.2,6.4-1.8,13.2-1.8,20.4
			C1870.4,315.8,1850.2,351.5,1819.4,373L1819.4,373z"/>
		<path class="st0" d="M1357.9,2.4c80.7,0,154.8,27.7,213.5,74.2c39.4,31.2,71.8,70.7,94.5,116c21.6-22.3,51.9-36.2,85.4-36.2h119
			l154-154H1357.9z"/>
		<path class="st0" d="M1826.2,815.2l-73.9-73.9c-1.4,1.4-2.8,2.8-4.2,4.1c-26.4,28.5-42.6,66.6-42.6,108.5c0,15.1,2.1,29.8,6,43.6
			c19,66.9,80.5,115.9,153.5,115.9c44,0,83.9-17.8,112.8-46.7L1826.2,815.2L1826.2,815.2z"/>
		<path class="st0" d="M1908.5,700.5c-13.9-3.9-28.5-6-43.6-6c-42.1,0-80.3,16.3-108.8,42.9c-1.3,1.3-2.6,2.7-3.9,4l73.9,73.9
			l151.6,151.5c28.9-28.9,46.7-68.7,46.7-112.8C2024.4,780.9,1975.4,719.4,1908.5,700.5z"/>
		<path class="st0" d="M1752.2,741.2c1.3-1.3,2.6-2.6,3.9-4c-1.3,1.3-2.7,2.5-4,3.8L1752.2,741.2z"/>
		<path class="st0" d="M1748,745.4c1.4-1.4,2.8-2.7,4.2-4.1l-0.1-0.1C1750.7,742.5,1749.4,744,1748,745.4z"/>
		<path class="st0" d="M1571.4,76.6c-58.7-46.4-132.9-74.1-213.5-74.1h-344.5l100.9,100.9l97.4,97.4l73.9,73.9
			c59.7-59.4,142-96.2,232.8-96.2c48.2,0,94.1,10.4,135.4,29c3.7-5.2,7.8-10.2,12.2-14.8C1643.2,147.3,1610.8,107.7,1571.4,76.6z"/>
		<path class="st0" d="M1285.6,274.6l-73.9-73.9l-97.4-97.4c-62.3,62.3-100.9,148.5-100.9,243.6c0,80.6,27.7,154.8,74.2,213.5
			c36.8,46.5,85.2,83.2,141,105.8c-25.6-46.9-40.1-100.7-40.1-157.9C1188.4,417,1225.6,334.3,1285.6,274.6L1285.6,274.6z"/>
		<path class="st0" d="M1819.4,373c-19.3,13.5-42.7,21.4-68,21.4c-18.2,0-35.4-4.1-50.9-11.4c-12.4-5.9-23.7-13.9-33.3-23.5
			l-64.2,64.2c21.2,21.5,34.4,51,34.4,83.6c0,24.5-7.4,47.2-20.1,66.1c-4.3,6.5-9.3,12.5-14.8,18l149.6,149.6c1.3-1.3,2.7-2.6,4-3.8
			c57.2-59.3,92.3-140,92.3-228.9C1848.4,460.2,1838,414.4,1819.4,373L1819.4,373z"/>
		<path class="st0" d="M1518.4,388.4c33.1,0,63.1,13.5,84.6,35.4l64.2-64.2c-21.5-21.5-34.8-51.3-34.8-84.1c0-25.3,7.9-48.8,21.4-68
			c-41.3-18.6-87.1-29-135.4-29c-90.9,0-173.2,36.7-232.8,96.2l148.7,148.7C1455.8,401.7,1485.6,388.4,1518.4,388.4L1518.4,388.4z"
			/>
		<path class="st0" d="M1399.4,507.4c0-32.9,13.3-62.6,34.8-84.1l-148.7-148.7c-60,59.8-97.2,142.5-97.2,233.8
			c0,57.2,14.6,111,40.2,157.9c15.2,27.8,34.3,53.2,56.5,75.5l51.1-51l98.7-98.7C1412.9,570.5,1399.4,540.5,1399.4,507.4
			L1399.4,507.4z"/>
		<path class="st0" d="M1602.6,591.6c-5.5,5.5-11.5,10.5-18,14.8c-18.9,12.7-41.7,20.1-66.2,20.1c-32.6,0-62.2-13.1-83.6-34.4
			l-98.7,98.7l-51.1,51c59.7,59.7,142.2,96.7,233.3,96.7s170.2-35.5,229.6-93c1.3-1.4,2.7-2.9,4.1-4.3L1602.6,591.6L1602.6,591.6z"
			/>
		<path class="st0" d="M1603.1,423.8c-21.6-21.8-51.5-35.4-84.6-35.4s-62.6,13.3-84.2,34.9l84.7,84.6L1603.1,423.8L1603.1,423.8z"/>
		<path class="st0" d="M1603.1,423.8l-84.1,84.1l82.6,82.6l1.1,1c5.5-5.5,10.4-11.5,14.8-18c12.7-18.9,20.1-41.7,20.1-66.1
			C1637.4,474.8,1624.3,445.3,1603.1,423.8L1603.1,423.8z"/>
		<path class="st0" d="M1601.5,590.5l-82.6-82.6l-84.1,84.1c21.5,21.2,51,34.4,83.6,34.4c24.5,0,47.2-7.4,66.1-20.1
			c6.5-4.3,12.5-9.3,18-14.8L1601.5,590.5z"/>
		<path class="st0" d="M1434.3,423.3c-21.5,21.5-34.8,51.3-34.8,84.1s13.5,63.1,35.4,84.6l84.1-84.1L1434.3,423.3L1434.3,423.3z"/>
		<path class="st0" d="M1870.4,156.4l-44.3,44.3l-74.4,74.4l-50.1,50l-34.4,34.4c9.6,9.6,20.8,17.6,33.3,23.5
			c15.4,7.3,32.7,11.4,50.9,11.4c25.3,0,48.8-7.9,68-21.4c30.8-21.5,51-57.2,51-97.6c0-7.2,0.6-14,1.8-20.4
			c17.3-93.3,152.2-98.6,152.2-98.6H1870.4z"/>
		<path class="st0" d="M1774.4,156.4h-23c-33.5,0-63.8,13.9-85.4,36.2c-4.4,4.6-8.5,9.5-12.2,14.8c-13.5,19.3-21.4,42.7-21.4,68
			c0,32.9,13.3,62.6,34.8,84.1l34.4-34.4l50.1-50l74.4-74.4l44.3-44.3H1774.4z"/>
		<path class="st0" d="M715.9,1013.4c-1.1,0.1-2.1,0.2-3.2,0.2c-1.3-0.1-2.6-0.2-3.9-0.2H715.9z"/>
		<path class="st0" d="M1013.4,691.4c0,0.9,0,1.9,0,2.8c0,0.7,0,1.4,0,2.1v0.1c0,1.9-0.1,3.8-0.1,5.8v0c0,0.1,0,0.2,0,0.3
			c0,0.8,0,1.5-0.1,2.2c0,0.2,0,0.3,0,0.5c0,0.5,0,1-0.1,1.5c0,0.1,0,0.3,0,0.4c-0.1,1.1-0.1,2.2-0.2,3.3c0,0.8-0.1,1.6-0.1,2.3
			c0,0.4-0.1,0.8-0.1,1.2c0,0,0,0.1,0,0.1c0,0.8-0.1,1.5-0.2,2.3c-0.1,1.8-0.3,3.6-0.5,5.4c-0.1,0.7-0.1,1.3-0.2,2
			c-0.1,0.7-0.2,1.5-0.2,2.2c0,0.4-0.1,0.8-0.1,1.2c-0.1,0.8-0.2,1.5-0.3,2.2c-0.1,0.6-0.1,1.2-0.2,1.9c-0.3,2.3-0.6,4.7-0.9,7
			c-0.1,0.8-0.2,1.6-0.4,2.4c-0.1,0.6-0.2,1.3-0.3,1.9c0,0,0,0.1,0,0.2c-0.4,2.3-0.8,4.6-1.2,7c-0.5,2.5-1,5-1.5,7.5
			c-0.3,1.2-0.5,2.5-0.8,3.7c-0.3,1.2-0.6,2.5-0.8,3.7c-0.2,1.1-0.5,2.1-0.8,3.2c-0.1,0.4-0.2,0.8-0.3,1.2c-0.2,1-0.5,2-0.8,3
			c-0.6,2.5-1.3,4.9-2,7.3c-0.3,1.2-0.7,2.4-1,3.6c0,0,0,0.1,0,0.1c-0.2,0.9-0.5,1.7-0.8,2.6c-0.2,0.6-0.3,1.1-0.5,1.7
			c-0.3,1-0.6,1.9-0.9,2.9c-0.3,0.9-0.6,1.9-0.9,2.8c-0.3,0.9-0.6,1.8-0.9,2.6c-0.1,0.2-0.2,0.5-0.2,0.7c-0.3,0.8-0.6,1.6-0.9,2.5
			c-0.2,0.6-0.5,1.3-0.7,1.9c-0.1,0.2-0.2,0.4-0.2,0.6c0,0.1-0.1,0.3-0.2,0.4c-0.3,0.8-0.6,1.7-0.9,2.5c-0.1,0.3-0.2,0.6-0.3,0.9
			c-0.4,0.9-0.7,1.9-1.1,2.8c-0.4,1-0.8,2-1.2,3c-0.5,1.2-1,2.5-1.5,3.7c0,0.1-0.1,0.2-0.1,0.3c-0.5,1.1-0.9,2.2-1.4,3.3
			c-1,2.3-2,4.6-3,6.8c-0.6,1.3-1.2,2.5-1.8,3.8c-0.3,0.5-0.5,1.1-0.8,1.6c-0.5,1.1-1,2.2-1.6,3.2c-0.2,0.5-0.5,1-0.7,1.5
			c-0.6,1.2-1.2,2.5-1.9,3.7c-0.6,1.2-1.3,2.5-2,3.7c-0.3,0.6-0.7,1.3-1,1.9c-0.3,0.5-0.5,1-0.8,1.5c-0.4,0.8-0.8,1.5-1.3,2.3
			c-0.8,1.5-1.7,3-2.5,4.4c-0.8,1.3-1.6,2.7-2.4,4c-0.3,0.4-0.5,0.9-0.8,1.3c-0.6,1-1.2,2-1.9,3c-1,1.7-2.1,3.4-3.2,5
			c-0.1,0.2-0.3,0.4-0.4,0.6c-0.2,0.4-0.5,0.7-0.7,1.1c-0.2,0.4-0.5,0.7-0.7,1.1c-0.1,0.1-0.2,0.3-0.3,0.4c-0.5,0.7-1,1.5-1.5,2.2
			c0,0,0,0,0,0c-0.5,0.7-0.9,1.4-1.4,2c-0.7,1-1.4,2-2.1,3c-0.5,0.7-1,1.4-1.5,2.2c-0.4,0.6-0.9,1.3-1.4,1.9c-0.3,0.5-0.7,0.9-1,1.4
			c-0.3,0.4-0.7,0.9-1,1.3c-0.2,0.2-0.4,0.5-0.5,0.7c-0.7,1-1.5,2-2.2,2.9c-0.9,1.1-1.7,2.2-2.6,3.4s-1.8,2.2-2.6,3.3
			c-0.9,1.1-1.8,2.2-2.7,3.3c-0.9,1.1-1.8,2.2-2.7,3.2c-0.5,0.5-0.9,1.1-1.4,1.6c-0.5,0.5-0.9,1.1-1.4,1.6c-0.9,1.1-1.9,2.1-2.8,3.2
			c-0.8,0.9-1.5,1.7-2.3,2.5c-0.4,0.4-0.7,0.8-1,1.1c-0.8,0.9-1.6,1.7-2.4,2.6c-1,1-1.9,2-2.9,3.1c-1,1-2,2-3,3
			c-0.9,0.9-1.7,1.7-2.6,2.6c0,0,0,0,0,0c-1.8,1.7-3.5,3.4-5.3,5.1c-7.2,6.7-14.7,13.2-22.4,19.2c-1.9,1.5-3.9,3-5.9,4.5
			c-1.3,0.9-2.5,1.9-3.8,2.8c-0.2,0.2-0.4,0.3-0.6,0.4c-1.3,0.9-2.5,1.8-3.8,2.7c-2.5,1.8-5,3.4-7.5,5.1c-0.1,0-0.1,0.1-0.2,0.1
			c-0.6,0.4-1.1,0.7-1.7,1.1c-2.3,1.5-4.6,2.9-6.9,4.3c-0.8,0.5-1.6,1-2.4,1.5c-0.5,0.3-1,0.6-1.4,0.9c-0.7,0.4-1.5,0.9-2.2,1.3
			c-0.1,0.1-0.3,0.2-0.4,0.2c-1,0.6-2.1,1.2-3.1,1.8c-2.2,1.2-4.3,2.4-6.5,3.6c-2.2,1.2-4.4,2.3-6.6,3.4c0,0,0,0,0,0
			c-1.5,0.7-3,1.5-4.4,2.2c-0.1,0-0.1,0.1-0.2,0.1c-1.3,0.6-2.5,1.2-3.8,1.8c-0.2,0.1-0.4,0.2-0.6,0.3c-0.9,0.4-1.8,0.8-2.7,1.3
			c-0.8,0.4-1.7,0.8-2.5,1.1c-0.1,0-0.1,0.1-0.2,0.1c-1.3,0.6-2.7,1.2-4.1,1.8c-0.3,0.1-0.6,0.3-0.9,0.4c-1.4,0.6-2.9,1.2-4.3,1.8
			c-2.3,0.9-4.6,1.9-7,2.7c-1.2,0.4-2.3,0.9-3.5,1.3c-2.3,0.9-4.7,1.7-7.1,2.5c-1,0.3-2.1,0.7-3.1,1.1c-0.9,0.3-1.9,0.6-2.8,0.9
			c-0.1,0-0.2,0.1-0.3,0.1c-0.7,0.2-1.4,0.5-2.2,0.7c-0.7,0.2-1.4,0.4-2.2,0.7c-0.2,0.1-0.4,0.1-0.7,0.2c-0.1,0-0.3,0.1-0.4,0.1
			c-0.9,0.3-1.8,0.5-2.7,0.8c-1.2,0.3-2.4,0.7-3.7,1c-3.7,1-7.3,2-11,2.8c-2.5,0.6-5,1.2-7.5,1.7c-1.1,0.2-2.3,0.5-3.4,0.7
			c-0.8,0.2-1.6,0.3-2.5,0.5c-0.3,0.1-0.7,0.1-1,0.2c0,0,0,0,0,0c-0.4,0.1-0.9,0.2-1.3,0.2c-2.3,0.4-4.6,0.8-6.9,1.2
			c-1.3,0.2-2.5,0.4-3.8,0.6c-1.3,0.2-2.5,0.4-3.8,0.5c-1.2,0.2-2.4,0.3-3.7,0.5c0,0-0.1,0-0.1,0c-0.1,0-0.1,0-0.2,0
			c-0.9,0.1-1.7,0.2-2.6,0.3c-0.8,0.1-1.5,0.2-2.3,0.3c-1,0.1-2,0.2-3,0.3c-1.2,0.1-2.4,0.2-3.6,0.3c-1.3,0.1-2.6,0.2-3.9,0.3h-25.5
			c0-1.4,0-2.8,0-4.2c0-0.9,0-1.8,0.1-2.7c0-0.7,0-1.3,0-2c0-0.9,0-1.8,0.1-2.7c0-0.6,0-1.2,0.1-1.7c0.1-1.1,0.1-2.3,0.2-3.4
			c0.1-1.4,0.2-2.7,0.2-4.1c0-0.9,0.1-1.8,0.2-2.7c0,0,0-0.1,0-0.1c0.1-1.2,0.2-2.4,0.3-3.7c0-0.3,0-0.6,0.1-0.9
			c0.1-1.4,0.2-2.7,0.4-4.1c0.1-0.7,0.1-1.3,0.2-2c0.1-0.6,0.1-1.2,0.2-1.7c0.1-0.7,0.2-1.3,0.2-2c0.1-0.9,0.2-1.8,0.3-2.7
			c0.1-0.5,0.1-0.9,0.2-1.4c0.1-0.9,0.2-1.9,0.4-2.8c0.2-1.2,0.3-2.5,0.5-3.7c0.1-0.7,0.2-1.4,0.3-2.1c0.2-1.1,0.3-2.1,0.5-3.2
			c0,0,0-0.1,0-0.1c0.2-1.1,0.4-2.2,0.6-3.3c0.2-1.1,0.4-2.2,0.6-3.3c0.1-0.5,0.2-1,0.3-1.5c0.2-0.8,0.3-1.7,0.5-2.5
			c0.5-2.5,1.1-5,1.6-7.5c0.1-0.5,0.2-1,0.4-1.5c0.6-2.5,1.2-4.9,1.8-7.4c0.3-1.1,0.6-2.1,0.8-3.2c0.4-1.5,0.8-2.9,1.2-4.3
			c0.7-2.6,1.5-5.1,2.3-7.6c0.3-1.1,0.7-2.2,1.1-3.3c0.2-0.5,0.4-1.1,0.5-1.7c0.2-0.6,0.4-1.1,0.5-1.6c0.2-0.7,0.5-1.4,0.7-2.1
			c1-3,2.1-6,3.3-9c0.1-0.4,0.3-0.8,0.4-1.1c0.1-0.2,0.1-0.3,0.2-0.5c0.4-1,0.8-2,1.2-3c0.5-1.2,1-2.4,1.5-3.7c1-2.4,2-4.8,3.1-7.2
			c1.6-3.6,3.2-7.1,4.9-10.7c1.1-2.3,2.3-4.7,3.5-7c1.2-2.3,2.4-4.6,3.7-6.9s2.5-4.5,3.8-6.8c0.6-1.1,1.3-2.2,2-3.3
			c0.5-0.9,1-1.7,1.5-2.5c0.3-0.6,0.7-1.1,1-1.7c3.9-6.3,8-12.5,12.3-18.6c1-1.4,1.9-2.7,2.9-4c0.1-0.2,0.2-0.3,0.4-0.5
			c0.9-1.3,1.9-2.6,2.9-3.8c0.5-0.7,1-1.3,1.5-1.9c0.3-0.4,0.5-0.7,0.8-1c0.5-0.7,1.1-1.4,1.7-2.1c0,0,0.1-0.1,0.1-0.1
			c0.9-1.1,1.8-2.2,2.7-3.3c0.2-0.3,0.4-0.5,0.6-0.8c1-1.2,2-2.4,3-3.6c0,0,0.1-0.1,0.1-0.1c1-1.2,2-2.3,3-3.5
			c0.2-0.2,0.4-0.4,0.5-0.6c1-1.1,2-2.3,3-3.4c0.6-0.7,1.2-1.3,1.8-2c1.3-1.5,2.7-2.9,4-4.3c0.5-0.6,1.1-1.1,1.6-1.7
			c0.2-0.2,0.3-0.4,0.5-0.5c0.6-0.6,1.1-1.2,1.7-1.8c0.1-0.1,0.2-0.2,0.4-0.4c0.6-0.6,1.2-1.2,1.7-1.8c1.4-1.4,2.8-2.8,4.2-4.1
			c0.8-0.8,1.6-1.5,2.4-2.3c2.1-2,4.3-4,6.5-6c0.6-0.5,1.2-1,1.8-1.6c2.4-2.1,4.8-4.2,7.2-6.2c0.5-0.4,0.9-0.8,1.4-1.2
			c1.5-1.2,3.1-2.5,4.6-3.7c0.7-0.5,1.3-1.1,2-1.6c0.3-0.2,0.6-0.5,0.9-0.7c0.8-0.6,1.6-1.2,2.3-1.8c1-0.8,2-1.5,3-2.3
			c0.3-0.2,0.6-0.4,0.8-0.6c0.1-0.1,0.1-0.1,0.2-0.1c0.9-0.7,1.8-1.3,2.7-1.9c0.9-0.7,1.8-1.3,2.7-1.9c1-0.7,2-1.4,3-2.1
			c1-0.7,2-1.3,2.9-2c0.6-0.4,1.2-0.8,1.8-1.2c0.5-0.3,1-0.6,1.5-1c0.7-0.5,1.5-1,2.2-1.4c4.1-2.7,8.3-5.2,12.6-7.7
			c0.5-0.3,1-0.6,1.5-0.9c1.3-0.8,2.7-1.5,4-2.2c2.8-1.6,5.6-3.1,8.5-4.5c0.8-0.4,1.6-0.8,2.4-1.2c0.1-0.1,0.3-0.2,0.5-0.2
			c0.9-0.5,1.9-0.9,2.8-1.4c1-0.5,1.9-0.9,2.9-1.4c0.8-0.4,1.5-0.7,2.2-1.1c0.6-0.3,1.3-0.6,1.9-0.9c0.2-0.1,0.4-0.2,0.6-0.3
			c0.7-0.3,1.3-0.6,1.9-0.9c7-3.1,14.1-6,21.3-8.7c1.2-0.4,2.5-0.9,3.7-1.3c5.9-2.1,11.9-4,18-5.7c0.6-0.2,1.1-0.3,1.7-0.5
			c2.1-0.6,4.1-1.1,6.2-1.7c0.7-0.2,1.3-0.3,2-0.5s1.3-0.3,2-0.5c0.6-0.2,1.3-0.3,1.9-0.5c2.1-0.5,4.2-1,6.4-1.4
			c1.3-0.3,2.6-0.6,3.9-0.8c0,0,0.1,0,0.1,0c1.3-0.3,2.5-0.5,3.8-0.8c1.3-0.2,2.6-0.5,4-0.7c2.2-0.4,4.3-0.8,6.5-1.1
			c1.3-0.2,2.6-0.4,3.9-0.6c0.1,0,0.3-0.1,0.5-0.1c0.9-0.1,1.9-0.3,2.8-0.4c0.8-0.1,1.6-0.2,2.4-0.3c3.3-0.4,6.6-0.8,9.9-1.1
			c1.1-0.1,2.2-0.2,3.3-0.3c0.1,0,0.3,0,0.4,0c0.9-0.1,1.8-0.1,2.6-0.2c1.1-0.1,2.1-0.2,3.2-0.2c0.8,0,1.5-0.1,2.3-0.1
			c1.4-0.1,2.7-0.2,4.1-0.2c0.8,0,1.6-0.1,2.3-0.1c0.4,0,0.8,0,1.2,0c1.1,0,2.3-0.1,3.4-0.1c1.4,0,2.8-0.1,4.1-0.1
			C1010.6,691.4,1012,691.4,1013.4,691.4z"/>
		<path class="st0" d="M857.7,560.4h-7.9c-5.2,0-10.2-0.8-14.9-2.2c-5.4-1.6-10.5-4.1-15-7.3c-13.4-9.4-22.1-24.9-22.1-42.5v-15.2
			c-11.9-4.9-24.8-7.6-38.4-7.6c-26.5,0-50.8,10.3-69,27.2v74.9l69,0h102C861.4,578.2,860.1,569.1,857.7,560.4L857.7,560.4z"/>
		<path class="st0" d="M690.4,2.4v510.3c18.2-16.8,42.5-27.2,69-27.2c13.5,0,26.5,2.7,38.4,7.6v-91.8c0-17.6,8.8-33.1,22.1-42.5
			c4.2-2.9,8.7-5.2,13.7-6.9c0.1-2.8,0.5-5.4,1.3-7.9c2.4-7.3,7.7-13.3,14.5-16.6V2.4H690.4z"/>
		<path class="st0" d="M849.4,2.4v325c1.4-0.7,3-1.3,4.5-1.7c2.4-0.7,4.9-1,7.5-1s5.1,0.4,7.5,1c1.2,0.3,2.4,0.8,3.5,1.2V2.4H849.4z
			"/>
		<path class="st0" d="M872.4,2.4V327c7.3,3.2,13,9.4,15.5,17.1c0.8,2.5,1.3,5.2,1.3,7.9c4.9,1.6,9.5,3.9,13.7,6.9
			c13.4,9.4,22.1,24.9,22.1,42.5v107.1c0,17.6-8.8,33.1-22.1,42.5c-4.5,3.2-9.6,5.7-15,7.3c-4.7,1.4-9.7,2.2-14.9,2.2h-15.4
			c2.4,8.7,3.7,17.8,3.7,27.2h-102l-69,0v425.8h0c0.5-177.9,144.9-322,323-322l0,0V2.4H872.4z"/>
		<path class="st0" d="M887.9,344.1c-2.5-7.6-8.2-13.9-15.5-17.1c-1.1-0.5-2.3-0.9-3.5-1.2c-2.4-0.7-4.9-1-7.5-1s-5.1,0.4-7.5,1
			c-1.6,0.4-3.1,1-4.5,1.7c-6.8,3.3-12.2,9.3-14.5,16.6c-0.8,2.5-1.3,5.2-1.3,7.9c0.4-0.1,0.9-0.3,1.3-0.4c4.7-1.4,9.7-2.2,14.9-2.2
			h23.3c5.2,0,10.2,0.8,14.9,2.2c0.4,0.1,0.9,0.3,1.3,0.4C889.2,349.3,888.7,346.6,887.9,344.1L887.9,344.1z"/>
	</g>
</g>
<line class="st0" x1="2.4" y1="1831.9" x2="2.4" y2="1335.9"/>
</svg>
